<?xml version="1.0" standalone="no"?>
<!DOCTYPE svg PUBLIC "-//W3C//DTD SVG 1.1//EN" "http://www.w3.org/Graphics/SVG/1.1/DTD/svg11.dtd" >
<svg xmlns="http://www.w3.org/2000/svg">
<metadata>
Created by FontPrep 20130207 at Fri Oct 18 17:22:38 2013
 By Matt Felten
Copyright (c) 2011 by Olga Karpushina | Cyreal.org. All rights reserved.
</metadata>
<defs>
<font id="33e0000900df319998cddaf127ac9fef" horiz-adv-x='1024' >
  <font-face 
    font-family="Lora-Italic"
    font-weight="400"
    font-style="italic"
    font-stretch="normal"
    units-per-em="2048"
    panose-1="2 0 5 3 0 0 0 9 0 4"
    ascent="1638"
    descent="-410"
    x-height="1047"
    cap-height="1434"
    bbox="-258 -555.045 2525.64 1968"
    underline-thickness="102"
    underline-position="-103"
    slope="-12"
    unicode-range="U+0020-FB02"
  />
<missing-glyph horiz-adv-x="1031" 
d="M229 75h518l45 874h-518zM113 1024h848l-53 -1024h-848z" />
    <glyph glyph-name=".notdef" horiz-adv-x="1031" 
d="M229 75h518l45 874h-518zM113 1024h848l-53 -1024h-848z" />
    <glyph glyph-name=".null" horiz-adv-x="0" 
 />
    <glyph glyph-name="nonmarkingreturn" horiz-adv-x="0" 
 />
    <glyph glyph-name="space" unicode=" " horiz-adv-x="539" 
 />
    <glyph glyph-name="exclam" unicode="!" horiz-adv-x="558" 
d="M411 1432q26 -35 26 -66q-1 -30 -1 -34t-122 -861h-75l-31 852q0 57 33 100.5t89 43.5q55 0 81 -35zM171 2q-33 35 -33 76q0 69 38.5 111.5t88.5 40.5t81.5 -34.5t30.5 -78.5t-12 -70t-39 -52t-75 -28t-80 35z" />
    <glyph glyph-name="quotedbl" unicode="&#x22;" horiz-adv-x="730" 
d="M496 1006l11 461h160l-44 -461h-127zM162 1006l11 461h160l-44 -461h-127z" />
    <glyph glyph-name="numbersign" unicode="#" horiz-adv-x="1654" 
d="M564 487h431l111 474h-434zM1616 1083v-2l-31 -120h-340l-107 -474h342l-32 -122h-338l-82 -365h-148l86 365h-429l-83 -365h-147l86 365h-340l33 122h336l111 474h-345l33 122h341l83 351h135l-80 -351h435l83 351h135l-80 -351h343z" />
    <glyph glyph-name="dollar" unicode="$" horiz-adv-x="1084" 
d="M522 48q134 0 216 76t82 191q0 169 -141 248t-259 142.5t-206 150.5t-88 222q0 134 95.5 256t310.5 133l13 239h110l-15 -242q114 -15 223 -89l-3 92h103l-25 -448h-76q-4 260 -109 313.5t-183 53.5q-135 0 -206.5 -74.5t-71.5 -156.5q0 -83 30 -134t79.5 -93
t112.5 -77.5t181 -100.5t208 -152t90 -237t-110 -265.5t-308 -128.5l-16 -280h-106l12 280q-163 5 -278 72l6 -65h-111l22 435h72q3 -274 139 -317.5t207 -43.5z" />
    <glyph glyph-name="percent" unicode="%" horiz-adv-x="1788" 
d="M1573.5 685.5q128.5 -61.5 128.5 -307.5q0 -157 -119.5 -284t-282.5 -127t-233 79t-96 159t-17 145q9 156 117.5 276.5t282.5 120.5q91 0 219.5 -61.5zM1131 444v-128q0 -98 29 -158t64.5 -88t83.5 -28t79.5 15t64 50.5t53 109t20.5 136.5q0 135 -43 225.5t-142 90.5
q-98 0 -153.5 -98.5t-55.5 -126.5zM761.5 1363q91.5 -104 91.5 -261t-118 -286t-283 -129t-258.5 105.5t-89.5 277.5q9 156 117.5 276.5t278.5 120.5t261.5 -104zM1543 1381l-1230 -1414l-80 78l1219 1422zM281 1166v-165q0 -136 64 -186.5t123 -50.5q108 0 157.5 101
t49.5 225q0 196 -64.5 248.5t-118.5 52.5q-100 0 -155.5 -98.5t-55.5 -126.5z" />
    <glyph glyph-name="ampersand" unicode="&#x26;" horiz-adv-x="1399" 
d="M176 1068q0 181 129 290t305 109q175 0 274 -68t99 -159q0 -40 -22.5 -68.5t-61.5 -28.5t-63.5 21.5t-24.5 55.5t18 65q-14 71 -84 90t-123 19t-105 -24.5t-106 -87t-54 -185.5q0 -209 99.5 -242.5t154.5 -33.5l13 1l69 1l-4 -90l-78 2q-239 0 -293 -135.5t-54 -211.5
t33 -139.5t109 -124.5t201 -61q230 0 341 122.5t111 312.5h-65q-91 0 -136.5 -24t-76.5 -48l-41 41q66 99 139.5 130.5t192.5 31.5t180 15t119 71l45 -35q-56 -89 -107 -128.5t-161 -50.5q0 -202 -101 -332t-225 -166t-234 -36q-232 0 -375.5 100t-143.5 290
q0 158 102.5 283t285.5 148q-281 56 -281 280z" />
    <glyph glyph-name="quotesingle" unicode="'" horiz-adv-x="407" 
d="M162 1006l11 461h172l-47 -461h-136z" />
    <glyph glyph-name="parenleft" unicode="(" horiz-adv-x="610" 
d="M580 1557l47 -47q-169 -214 -262 -471q-93 -256 -111 -603q0 -309 68 -530t203 -413l-53 -47q-162 155 -288 423q-125 268 -125 582q0 313 166 627q165 314 355 479z" />
    <glyph glyph-name="parenright" unicode=")" horiz-adv-x="610" 
d="M14 -555l-47 47q169 214 262 470.5t111 603.5q0 309 -68 530t-203 413l53 47q162 -155 287.5 -423t125.5 -582t-165.5 -627.5t-355.5 -478.5z" />
    <glyph glyph-name="asterisk" unicode="*" horiz-adv-x="1050" 
d="M576 1467q67 0 67 -97q0 -24 -21.5 -146.5t-39.5 -182.5q65 34 171 84t132.5 57.5t50.5 7.5q71 0 71 -64q0 -54 -55.5 -74t-171 -41t-181.5 -27q73 -65 186 -193q51 -59 51 -102t-19 -63t-41 -20q-57 0 -102 83q-81 152 -122 260q-25 -48 -34 -62l-64 -111
q-57 -96 -71 -112.5t-37 -35.5t-50 -19q-28 0 -44.5 16.5t-16.5 44.5q0 56 57 114q131 133 211 200q-64 12 -138 23t-117 19q-138 27 -138 83q0 43 24 61.5t61 18.5q36 0 110 -36q75 -36 220 -112q-18 94 -27 302q0 124 78 124z" />
    <glyph glyph-name="plus" unicode="+" horiz-adv-x="1047" 
d="M73 707l394 -2l22 407h123l-22 -408l395 -2l-6 -106l-395 -2l-23 -426h-123l23 425l-394 -1z" />
    <glyph glyph-name="comma" unicode="," horiz-adv-x="485" 
d="M122.5 171q33.5 30 88.5 30q56 0 90 -44.5t34 -99.5q0 -102 -44.5 -217.5t-123.5 -205.5l-51 41q70 77 92 170t22 155h-3q-70 -27 -104 10t-34 84t33.5 77z" />
    <glyph glyph-name="hyphen" unicode="-" horiz-adv-x="989" 
d="M136 723h727l-6 -127l-727 -8z" />
    <glyph glyph-name="period" unicode="." horiz-adv-x="476" 
d="M119.5 3q-32.5 36 -32.5 75q0 67 38.5 107t87.5 40t78 -35t29 -87v-7q-2 -55 -39 -92t-83 -37t-78.5 36z" />
    <glyph glyph-name="slash" unicode="/" horiz-adv-x="1339" 
d="M1357 1480l-1296 -2035l-97 68l1280 2043z" />
    <glyph glyph-name="zero" unicode="0" horiz-adv-x="1223" 
d="M110 611q0 373 144 614.5t402 241.5q322 0 397 -251.5t75 -385.5q0 -133 -12.5 -227.5t-55.5 -239.5t-164.5 -270.5t-307.5 -125.5q-330 0 -404 242t-74 402zM307 639q0 -62 5.5 -132.5t43.5 -265t241 -194.5q123 0 229 159.5t106 609.5t-109 511.5t-165 61.5t-103.5 -26
t-85 -71t-65.5 -106t-47.5 -131.5t-31 -147.5t-15 -141.5t-3.5 -126.5z" />
    <glyph glyph-name="one" unicode="1" horiz-adv-x="725" 
d="M469 223q-5 -110 -13 -141l172 8l-4 -90h-508l2 68q145 5 167 92.5t24 140.5l45 967h-4l-250 -157l-37 60l399 296h70z" />
    <glyph glyph-name="two" unicode="2" horiz-adv-x="1076" 
d="M285 1242q32 -34 32 -92q0 -59 -37 -76t-69 -17t-60 27.5t-28 75.5t29.5 102.5t123.5 129.5t292 75q275 0 339.5 -123t64.5 -198q0 -141 -96 -283.5t-327 -317.5q-146 -112 -237 -208t-112 -186l477 -13q114 0 153.5 20.5t57 49t19.5 75.5h62l-27 -283h-886
q7 188 104.5 304t173.5 182t150 132q140 125 215.5 250t75.5 232q0 200 -87.5 243.5t-143.5 43.5q-95 0 -163.5 -41t-95.5 -104z" />
    <glyph glyph-name="three" unicode="3" horiz-adv-x="1117" 
d="M228 188q34 -133 262 -133q60 0 122 24.5t129.5 94.5t67.5 230q0 239 -110.5 275t-176.5 36t-129 -4l5 92h84q208 0 254.5 127.5t46.5 188.5q0 127 -54.5 197.5t-183.5 70.5q-90 0 -163 -49t-88 -106q26 -31 26 -64q0 -52 -25.5 -77.5t-63.5 -25.5t-64 24.5t-26 70.5
t28.5 100t121 130.5t286.5 76.5q274 0 336 -120.5t62 -190.5q0 -137 -87 -241.5t-261 -144.5q184 -16 284.5 -112t100.5 -238q0 -208 -159.5 -330.5t-362.5 -122.5t-315.5 86.5t-112.5 194.5q0 51 28 82.5t61 31.5t50 -8t29 -20.5t18.5 -29t6.5 -49.5t-27 -67z" />
    <glyph glyph-name="four" unicode="4" horiz-adv-x="1080" 
d="M640 515l35 667h-4l-530 -660zM454 67q138 11 156 106.5t20 151.5l3 70h-626l5 101l765 971h70l-41 -954l205 -3l-6 -115h-204l-7 -172q-5 -105 -18 -145l161 6l-6 -84h-498l5 67h16z" />
    <glyph glyph-name="five" unicode="5" horiz-adv-x="1071" 
d="M267 257q0 -33 -29 -69q2 -66 67.5 -103.5t150.5 -37.5q161 0 240 114t79 278q0 278 -118.5 318t-183.5 40q-131 0 -247 -70l-56 51l33 656h520q115 0 152 24t49 49t14 60h54l-31 -265l-674 -14l-25 -452q127 53 263 53q239 0 345 -125.5t106 -305.5q0 -232 -152 -361.5
t-369 -129.5q-175 0 -278.5 83t-103.5 194q0 54 27.5 86t61.5 32t51 -7.5t29 -20t18.5 -28.5t6.5 -49z" />
    <glyph glyph-name="six" unicode="6" horiz-adv-x="1134" 
d="M390 721.5q-106 -83.5 -106 -177.5q0 -216 59.5 -356.5t205.5 -140.5t218.5 115t72.5 272t-52 264t-172 107t-226 -83.5zM293 725q135 170 351 170q134 0 223 -60t127.5 -154.5t38.5 -201.5q0 -214 -138 -363t-353 -149q-435 0 -435 583q0 380 113 593.5t236.5 268.5
t223.5 55q171 0 260.5 -78t89.5 -179q-3 -45 -30.5 -70.5t-67.5 -25.5t-64 26.5t-24 66.5t28 74q-18 69 -81 88.5t-123 18.5t-118 -37.5t-143 -151.5t-114 -474z" />
    <glyph glyph-name="seven" unicode="7" horiz-adv-x="926" 
d="M296 1294q-175 0 -182 -151h-49l14 291h858l-6 -136q-154 -286 -239.5 -530.5t-132.5 -399t-69 -226.5q-34 -110 -60.5 -144.5t-68.5 -30.5q-110 9 -67.5 133.5t89 224t74.5 161.5t137.5 307t241.5 504z" />
    <glyph glyph-name="eight" unicode="8" horiz-adv-x="1155" 
d="M857 1154q0 106 -65 169.5t-176 63.5q-112 0 -186 -78t-74 -178q0 -198 290 -317q211 138 211 340zM285 312q0 -128 72.5 -195.5t199.5 -67.5t205 79t78 200q0 162 -111.5 241t-149 97.5t-67.5 33.5q-227 -155 -227 -388zM115 282q0 264 327 457q-267 161 -267 345
t138 283.5t303 99.5t280 -82.5t115 -226.5q0 -176 -118.5 -265.5t-174.5 -117.5q310 -185 310 -439q0 -82 -40 -155t-138 -143.5t-295 -70.5q-300 0 -370 117.5t-70 197.5z" />
    <glyph glyph-name="nine" unicode="9" horiz-adv-x="1131" 
d="M854 851q-5 537 -270 537q-142 0 -211.5 -114.5t-69.5 -274.5q0 -282 98.5 -324t148.5 -42q94 0 180 64t124 154zM597 1467q434 -7 434 -649t-214.5 -746.5t-322.5 -104.5q-185 0 -277 78.5t-92 180.5q0 51 27.5 82.5t70.5 31.5t66 -27t23 -71t-35 -72q38 -125 187 -125
q150 0 258.5 145.5t128.5 521.5q-136 -171 -346 -171q-270 0 -329 153t-59 260q0 222 127 367.5t353 145.5z" />
    <glyph glyph-name="colon" unicode=":" horiz-adv-x="519" 
d="M153 3q-33 36 -33 75q0 67 39 107t87 40q49 0 78 -35t29 -87v-7q-2 -55 -29 -82q-47 -47 -93 -47q-45 0 -78 36zM184 835q-33 36 -33 75q0 67 39 107t87 40q49 0 78 -35t29 -87v-7q-2 -55 -29 -82q-47 -47 -93 -47q-45 0 -78 36z" />
    <glyph glyph-name="semicolon" unicode=";" horiz-adv-x="554" 
d="M189.5 835q-32.5 36 -32.5 75q0 67 38.5 107t87.5 40t78 -35t29 -87v-7q-2 -55 -39 -92t-83 -37t-78.5 36zM173.5 171q33.5 30 88.5 30q56 0 90 -44.5t34 -99.5q0 -102 -44.5 -217.5t-123.5 -205.5l-51 41q70 77 92 170t22 155h-3q-70 -27 -104 10t-34 84t33.5 77z" />
    <glyph glyph-name="less" unicode="&#x3c;" horiz-adv-x="1104" 
d="M72 709l934 405l-8 -123l-794 -342v-2l759 -342l-8 -127l-889 397z" />
    <glyph glyph-name="equal" unicode="=" horiz-adv-x="1203" 
d="M159 895l912 -4l-6 -111l-912 -4zM139 502l911 -4l-6 -111l-911 -4z" />
    <glyph glyph-name="greater" unicode="&#x3e;" horiz-adv-x="1103" 
d="M1034 584l-934 -405l8 123l794 342v2l-759 342l8 127l889 -397z" />
    <glyph glyph-name="question" unicode="?" horiz-adv-x="969" 
d="M293 1171q0 -44 -25.5 -72t-67.5 -28t-69 27.5t-27 73.5t30.5 98t124 124.5t283.5 72.5t283 -90t93 -233t-98.5 -236t-156.5 -137t-141.5 -107.5t-83.5 -122.5q0 -23 18 -42.5t61 -19.5t80 15l21 -72q-63 -37 -138 -37t-127.5 33.5t-52.5 89.5t32 98.5t82.5 85
t104.5 86.5t134 132t80 248t-84.5 194.5t-140.5 34.5q-95 0 -164.5 -46t-80.5 -97q30 -29 30 -73zM432 -33q-33 0 -64.5 30t-31.5 70q0 65 37 103.5t82 38.5q44 0 73 -32t29 -79v-10q-2 -50 -26.5 -76t-45 -35.5t-53.5 -9.5z" />
    <glyph glyph-name="at" unicode="@" horiz-adv-x="1623" 
d="M631 143q-196 1 -196 279q0 92 33.5 198.5t135.5 236.5t334 130q118 0 213 -26q-15 -84 -55 -295t-40 -303q0 -161 98 -161t170.5 125.5t72.5 301.5q0 313 -143.5 453.5t-377.5 140.5q-145 0 -263.5 -60t-248 -216.5t-129.5 -458.5q0 -392 219.5 -496t378.5 -104
q294 0 467 196l47 -51q-209 -228 -557 -228t-525.5 192t-177.5 489t165.5 504.5t331 260.5t288.5 53t214 -24.5t197 -88.5t180 -206t74 -319t-74.5 -303t-167.5 -178.5t-163 -52.5q-114 0 -155.5 49.5t-41.5 119.5t29 197h-4q-78 -208 -160.5 -281.5t-168.5 -73.5zM572 409
q0 -188 97 -188q71 0 168.5 140.5t132.5 307.5t39 238q-45 19 -110 19t-108 -23t-94.5 -80.5t-88 -177.5t-36.5 -236z" />
    <glyph glyph-name="A" unicode="A" 
d="M539 958q-60 -151 -164 -428h469l-216 658h-4zM350 0h-379l3 68q100 3 147 101t70 155l462 1149h46l391 -1166q43 -143 43 -210v-15l133 8v-90h-449l2 68q124 3 124 103q0 34 -17 91l-59 192l-524 -12l-83 -219q-28 -75 -63 -141l153 8v-90z" />
    <glyph glyph-name="B" unicode="B" horiz-adv-x="1267" 
d="M624 80q157 0 256.5 86t99.5 246t-93.5 229.5t-224.5 69.5t-229 -6l-25 -461q-6 -120 -14 -160q50 -4 64 -4h166zM494 1322.5q-31 -41.5 -37 -157.5l-20 -381q81 0 161 4q156 8 235 100.5t79 228.5t-84.5 191.5t-193.5 55.5t-140 -41.5zM1093 1117q0 -117 -87.5 -217
t-261.5 -130v-4q211 0 319.5 -93.5t108.5 -248.5q0 -196 -139.5 -310t-358.5 -114h-592l5 68q102 2 124 55.5t25 101t6 105.5l45 860q4 103 15 162l-150 -9l6 91l457 4q478 0 478 -321z" />
    <glyph glyph-name="C" unicode="C" horiz-adv-x="1405" 
d="M843 1467q226 0 404 -123h2l-5 111h111l-25 -475h-74q-10 191 -118 297t-287 106q-232 0 -395 -196t-163 -509q0 -267 146.5 -435.5t362.5 -168.5q217 0 330.5 86t158.5 143l51 -43q-234 -293 -594 -293q-291 0 -469.5 193.5t-178.5 502.5t157 507.5t310 247.5t276 49z
" />
    <glyph glyph-name="D" unicode="D" horiz-adv-x="1512" 
d="M1423 806q0 -136 -22.5 -231.5t-91.5 -228.5t-253 -239.5t-443 -106.5h-531l5 68q103 4 125.5 58.5t27.5 192.5l49 885q4 78 15 148l-152 -9l6 91l475 2q368 2 522.5 -121t211 -248t56.5 -261zM392 82q68 -4 80 -4h139q275 0 448 200.5t173 499.5q0 418 -227.5 500
t-384.5 82q-108 0 -134 -46.5t-33 -184.5l-47 -887q-6 -121 -14 -160z" />
    <glyph glyph-name="E" unicode="E" horiz-adv-x="1268" 
d="M407 236q-6 -121 -14 -160l391 6q144 2 223 73t88 244h70l-33 -399h-1049l5 68q103 4 125.5 58.5t27.5 192.5l49 885q4 78 15 148l-150 -9l4 91h977l-8 -359h-68q13 242 -95.5 265t-166.5 22l-176 -4q-107 -4 -133 -52t-35 -192l-18 -328l147 -2q140 -2 180.5 23
t56.5 63.5t19 106.5h68l-23 -447h-67q6 127 -36 152.5t-88 28t-112 0.5l-149 -6z" />
    <glyph glyph-name="F" unicode="F" horiz-adv-x="1107" 
d="M576 678q-68 0 -146 -6l-23 -428q-4 -110 -14 -162l209 8l-5 -90h-514l5 68q103 4 125.5 58.5t27.5 192.5l49 885q4 78 15 148l-150 -9l4 91h942l-8 -359h-67q11 242 -100 265t-169 22l-149 -4q-98 -4 -123 -51.5t-32 -175.5l-19 -377h159q118 2 151.5 28t47 63.5
t16.5 100.5h68l-23 -448h-67q6 118 -29.5 144.5t-74 31t-106.5 4.5z" />
    <glyph glyph-name="G" unicode="G" horiz-adv-x="1543" 
d="M810 1467q272 0 453 -112l-4 98h113l-25 -469h-73q-4 187 -120.5 294t-299.5 107q-232 0 -396.5 -201.5t-164.5 -487.5t142.5 -458t358.5 -172t371 102l23 446l-144 -8l4 90h457l-4 -67q-144 0 -151.5 -115t-8.5 -129l-16 -311h-49q-86 0 -226 -54q-141 -54 -295 -53
q-305 0 -480 177t-175 495t156.5 523t310 255t243.5 50z" />
    <glyph glyph-name="H" unicode="H" horiz-adv-x="1584" 
d="M1165 693l-734 -9l-23 -440q-7 -124 -14 -162l147 8l-4 -90h-453l5 68q102 4 123 55t24 96.5t6 99.5l47 885q4 78 15 148l-148 -9l4 91h453l-4 -68q-93 -4 -120 -53t-34 -174l-20 -365h734l23 430q4 78 15 148l-148 -9l4 91h453l-4 -68q-93 -4 -120 -52.5t-34 -172.5
l-47 -897q-7 -124 -14 -162l147 8l-4 -90h-452l4 68q103 4 125.5 58.5t27.5 192.5z" />
    <glyph glyph-name="I" unicode="I" horiz-adv-x="681" 
d="M289 1204q4 78 15 148l-148 -9l4 91h453l-4 -68q-98 -4 -123.5 -53t-30.5 -179l-47 -890q-4 -109 -14 -162l147 8l-4 -90h-453l5 68q103 4 124.5 55t24 96.5t4.5 99.5z" />
    <glyph glyph-name="J" unicode="J" horiz-adv-x="751" 
d="M158 122q0 -22 -9 -41q29 -49 111 -22.5t94 255.5l53 1038l-209 -9l4 91h537l-5 -68q-134 0 -150 -80t-18 -123l-34 -663q-14 -288 -94.5 -410.5t-258.5 -122.5q-137 0 -172.5 52.5t-35.5 93.5t24 72.5t58 33.5t52 -6t30 -21.5t17.5 -30.5t5.5 -39z" />
    <glyph glyph-name="K" unicode="K" horiz-adv-x="1365" 
d="M1110 0q-52 0 -196 201l-227 331q-85 126 -146 166l-109 -2l-24 -452q-7 -124 -14 -162l147 8l-4 -90h-453l5 68q103 4 125.5 58.5t27.5 192.5l47 885q4 78 15 148l-148 -9l4 91h453l-4 -68q-93 -4 -120 -55.5t-34 -176.5l-19 -356h160l273 404q75 113 158 170v2l-130 -4
l5 84h440l-4 -68q-139 -11 -205.5 -50t-116 -90.5t-106.5 -135.5l-217 -320q67 -43 104.5 -96.5t54.5 -77.5l215 -305q139 -201 197.5 -212t91.5 -11l-4 -68h-242z" />
    <glyph glyph-name="L" unicode="L" horiz-adv-x="1181" 
d="M158 1434h453l-4 -68q-97 -4 -123 -61t-31 -191l-47 -878q-6 -121 -14 -160l383 6q198 3 236.5 127t43.5 215h70l-35 -424h-1008l5 68q102 4 123 55t24 96.5t6 99.5l49 885q5 103 15 148l-146 -9v91z" />
    <glyph glyph-name="M" unicode="M" horiz-adv-x="1878" 
d="M1470 311v416q0 416 2 461h-4l-559 -1208h-59q-96 242 -181 483t-137 382q-92 246 -127 369h-4q-6 -166 -27 -405l-53 -553q-5 -46 -9 -91t-10 -83l154 8l-6 -90h-389l4 68q120 2 133 76t17 112l110 1096l-147 -6l4 88h305l444 -1184h5q63 136 115 256q62 142 224 479
t211 449h295l-4 -68q-79 2 -116 -50t-35 -173l6 -932q0 -73 -4 -129l151 8l-6 -90h-450l4 68h16q80 8 103.5 63.5t23.5 179.5z" />
    <glyph glyph-name="N" unicode="N" horiz-adv-x="1561" 
d="M1311 -23h-99l-837 1197h-4l-33 -889q-3 -53 -5 -104t-9 -99l147 8l-4 -90h-375l2 68q137 0 144 161l55 1123l-137 -9l4 91h243l824 -1172h4l43 942q4 87 14 148l-147 -9l4 91h377l-4 -68q-102 -4 -122.5 -55.5t-22.5 -96.5t-5 -100z" />
    <glyph glyph-name="O" unicode="O" horiz-adv-x="1613" 
d="M820 1467q146 0 243.5 -29.5t207 -104.5t183.5 -237t74 -340q0 -292 -157 -490t-311 -248.5t-276 -50.5t-219.5 29t-207 102.5t-183.5 233.5t-74 328q0 169 52.5 313t149.5 254t234.5 175t283.5 65zM832 1385q-162 0 -284.5 -101t-187 -259t-64.5 -322q0 -243 97 -405
t203 -204.5t195 -42.5t163.5 28t162.5 99t151.5 226.5t63.5 318.5q0 261 -133 461.5t-367 200.5z" />
    <glyph glyph-name="P" unicode="P" horiz-adv-x="1222" 
d="M567 620q176 0 302 103.5t136 277.5q15 356 -405 356q-90 0 -115.5 -53.5t-30.5 -179.5l-27 -498q59 -6 140 -6zM566 539h-62q-61 0 -81 2l-16 -297q-7 -124 -14 -162l188 10l-4 -92h-494l5 68q103 4 125.5 58.5t27.5 192.5l47 885q4 78 15 148l-150 -9l6 91q164 3 454 3
q291 0 438 -102.5t145 -299.5t-123.5 -314.5t-276 -149.5t-230.5 -32z" />
    <glyph glyph-name="Q" unicode="Q" horiz-adv-x="1614" 
d="M832 1385q-162 0 -284.5 -101t-187 -259t-64.5 -322q0 -243 97 -405t203 -204.5t195 -42.5t163.5 28t162.5 99t151.5 226.5t63.5 318.5q0 261 -133 461.5t-367 200.5zM820 1467q146 0 243.5 -29.5t207 -104.5t183.5 -237t74 -340q0 -250 -121.5 -435t-241.5 -250
t-217 -86v-2q100 0 165.5 -22t146.5 -97t129.5 -120t97.5 -84t98 -39h12v-67h-65q-124 0 -184.5 17t-130.5 80t-109.5 103t-91 93t-105.5 86.5t-151 33.5q-98 0 -195.5 29t-207 102.5t-183.5 233.5t-74 328q0 169 52.5 313t149.5 254t234.5 175t283.5 65z" />
    <glyph glyph-name="R" unicode="R" horiz-adv-x="1281" 
d="M548 715q61 0 235.5 37.5t174.5 317.5q0 289 -350 289q-98 0 -123.5 -52t-30.5 -183l-22 -404q55 -5 116 -5zM540 0h-457l5 68q103 4 124.5 55t24 96.5t4.5 99.5l47 885q4 78 15 148l-150 -9l6 91q91 1 178 2.5t145 1.5t84.5 -0.5t181 -5.5t278 -94.5t123.5 -248.5
q0 -237 -137.5 -320.5t-260.5 -108.5v-2q57 -44 135 -177l127 -219q61 -104 107.5 -149t132.5 -45l-4 -68h-250q-75 60 -170 227l-126 220q-79 145 -127 193q-17 -1 -22 -1h-47l-79 3l-21 -398q-6 -123 -14 -162l147 8v-90z" />
    <glyph glyph-name="S" unicode="S" horiz-adv-x="1160" 
d="M884 323q0 176 -149.5 250.5t-274 133t-218.5 142.5t-94 226t99 267t320 125t365 -105l-3 87h104l-22 -449h-74q-2 162 -89.5 273.5t-256.5 111.5q-127 0 -203.5 -75t-76.5 -182q0 -159 151.5 -231.5t275.5 -130t221.5 -147t97.5 -256.5q0 -168 -134 -282t-363 -114
q-230 0 -362 88l6 -71h-107l11 436h80q2 -183 106.5 -275t255.5 -92q152 0 243 72t91 198z" />
    <glyph glyph-name="T" unicode="T" horiz-adv-x="1303" 
d="M1206 1001l1 50q0 165 -53 237t-196 72l-175 -2l-67 -1114q-4 -57 -6.5 -96.5t-7.5 -65.5l170 8l-4 -90h-473l4 68q90 4 117 64t34 187l63 1038l-210 -1q-187 0 -218.5 -132t-35.5 -223h-76l35 433h1186l-10 -433h-78z" />
    <glyph glyph-name="U" unicode="U" horiz-adv-x="1523" 
d="M383 562q0 -478 397 -478q210 0 321.5 144.5t128.5 398.5l37 577q4 87 14 148l-147 -9l4 91h383l-2 -68q-105 -4 -126.5 -55.5t-24 -97t-5.5 -99.5l-28 -477q-28 -466 -230.5 -568t-354.5 -102q-297 0 -418.5 143t-121.5 463q0 181 18.5 447t28.5 332l-147 -6l4 88h455
l-4 -68q-91 0 -120 -48t-32 -114q-30 -568 -30 -642z" />
    <glyph glyph-name="V" unicode="V" horiz-adv-x="1361" 
d="M515 1364q-140 -10 -140 -110q0 -47 23 -111l168 -477q115 -303 145 -396h5q27 74 63.5 161t54.5 132l262 637q39 100 68 152l-158 -9l4 91h416l-4 -68q-90 -4 -141 -48t-94 -153l-496 -1188h-53l-402 1092q-55 144 -63.5 200t-9.5 79l-115 -5l4 91h467z" />
    <glyph glyph-name="W" unicode="W" horiz-adv-x="2035" 
d="M388 1260q0 -51 16 -117l130 -477q26 -99 56.5 -202.5t43.5 -151.5h4q25 70 48.5 131.5t36 95t20.5 53.5l311 846h57l213 -772q25 -94 51 -185t51 -188h4q23 60 49.5 128t53.5 140l242 639q38 99 70 150l-164 -7l4 91h416l-4 -68q-53 -6 -88 -19t-70.5 -52.5
t-110.5 -231.5l-426 -1085h-53l-233 806q-15 53 -36 124.5t-46 178.5h-7l-421 -1109h-54l-308 1091q-15 54 -39.5 138t-31.5 141l-116 -5l4 91h491l-4 -68q-88 -4 -124 -29.5t-36 -76.5z" />
    <glyph glyph-name="X" unicode="X" horiz-adv-x="1335" 
d="M597 1434v-68l-94 -4q-100 -4 -100 -60q0 -25 29.5 -86t250.5 -387l213 285q141 193 192 238l-172 -9l4 91h404l-4 -68q-123 -18 -212 -128.5t-124 -156.5l-249 -328l466 -667l119 4l-4 -90h-504l4 68h12q60 0 84.5 20t24.5 48t-24.5 72.5t-279.5 407.5l-220 -303
q-42 -55 -83.5 -114t-95.5 -119l170 10l-4 -90h-401l4 68q123 25 189 109.5t104 135.5l284 380q-306 447 -344.5 520t-60.5 135l-115 -5l4 91h533z" />
    <glyph glyph-name="Y" unicode="Y" horiz-adv-x="1313" 
d="M765 614q-22 -370 -23 -425t-12 -107l170 8l-4 -90h-473l4 68q102 4 123.5 56.5t23.5 97.5t5 97l12 234l-324 563q-87 145 -98 232l-127 -5l4 91h520l-4 -68q-133 0 -156.5 -58t35.5 -165q188 -327 267 -445h4q300 525 341 580.5t56 71.5l-162 -7l4 91h418l-4 -68
q-138 -8 -215.5 -115.5t-198 -315.5t-186.5 -321z" />
    <glyph glyph-name="Z" unicode="Z" horiz-adv-x="1254" 
d="M65 94q61 81 140 184t249.5 333t300.5 419q130 190 163.5 236t75.5 92l-528 -8q-245 -12 -260 -340h-70l35 424h1016l-4 -72l-803 -1116q-69 -95 -100 -125t-48 -45l506 8q223 3 277 126.5t59 209.5h70l-35 -420h-1051z" />
    <glyph glyph-name="bracketleft" unicode="[" horiz-adv-x="739" 
d="M239 1546h543l-8 -114l-399 -7l-135 -1826l411 -7l-9 -114h-548z" />
    <glyph glyph-name="backslash" unicode="\" horiz-adv-x="1607" 
d="M99 1480l113 76l1280 -2043l-97 -68z" />
    <glyph glyph-name="bracketright" unicode="]" horiz-adv-x="739" 
d="M486 -522h-543l8 114l399 7l135 1826l-411 7l9 114h548z" />
    <glyph glyph-name="asciicircum" unicode="^" horiz-adv-x="1686" 
d="M946 1454l596 -571h-176l-517 501h-2l-573 -493h-163l661 563h174z" />
    <glyph glyph-name="underscore" unicode="_" horiz-adv-x="1454" 
d="M55 -102l1260 -9l-7 -106h-1259z" />
    <glyph glyph-name="grave" unicode="`" horiz-adv-x="491" 
d="M93 1491q0 71 60 71q48 0 87 -65l159 -270l-49 -41l-211 219q-46 50 -46 86z" />
    <glyph glyph-name="a" unicode="a" horiz-adv-x="1123" 
d="M613 973q-179 0 -272.5 -180t-93.5 -425q0 -301 133 -301q90 0 205 181.5t149 395t35 304.5q-60 25 -156 25zM948 1012q-91 -674 -91 -803t56 -129q40 0 81.5 48.5t69.5 149.5l58 -12q-19 -98 -65.5 -162t-93.5 -95.5t-108 -31.5q-151 0 -151 185q0 94 37 274h-6
q-145 -459 -393 -459q-124 0 -195.5 86.5t-71.5 250.5q0 324 155.5 528.5t442.5 204.5q137 0 275 -35z" />
    <glyph glyph-name="b" unicode="b" horiz-adv-x="1047" 
d="M777 631q0 320 -140 320q-92 -4 -197.5 -179t-137 -383t-33.5 -293q47 -46 135 -46t142.5 26.5t111 88.5t88 193.5t31.5 272.5zM383 -23q-154 0 -266 43q67 1065 71 1100l14 150q12 115 13.5 124t3.5 23l-147 -8l8 82q175 0 211.5 22t48.5 33h60q-15 -95 -18 -122
l-27 -224q-14 -137 -29 -281t-31 -309h6q109 399 237.5 418t178.5 19t143 -59t93 -306q0 -491 -208 -598t-362 -107z" />
    <glyph glyph-name="c" unicode="c" horiz-adv-x="969" 
d="M259 479q0 -401 250 -401q143 0 213 91.5t100 165.5l72 -34q-142 -324 -423 -324t-336.5 167t-55.5 258t12.5 163t55 183t152.5 205t256 94q145 0 233 -69t88 -171q0 -48 -24 -74.5t-58 -26.5t-49 8.5t-24.5 21.5t-14 27t-4.5 45t26 58q-11 57 -56.5 83t-105.5 26
t-105.5 -22t-94.5 -77t-78 -169t-29 -228z" />
    <glyph glyph-name="d" unicode="d" horiz-adv-x="1136" 
d="M642 973q-75 0 -131.5 -25t-118.5 -86.5t-100 -191.5t-38 -268q0 -329 144 -329q94 0 204.5 180.5t137 382.5t39.5 317q-62 20 -137 20zM78 355q0 321 154.5 506.5t441.5 185.5q59 0 115 -9q32 302 53 379l-149 -8l8 82q173 0 210.5 22t49.5 33h59q-30 -189 -49 -352
l-37 -320q-59 -526 -59 -686q0 -78 17.5 -93t35.5 -15q40 0 80.5 48.5t68.5 150.5l60 -13q-19 -98 -65.5 -162t-93 -95.5t-98.5 -31.5q-89 0 -128 48.5t-39 149.5q0 100 31 251h-6q-134 -449 -383 -449q-135 0 -206 108.5t-71 269.5z" />
    <glyph glyph-name="e" unicode="e" horiz-adv-x="976" 
d="M532 977q-54 0 -151 -70.5t-119 -367.5q288 39 360.5 131t72.5 138t-9 74.5t-27 49.5t-45.5 33t-81.5 12zM897 289q-167 -312 -417 -312q-118 0 -259 63.5t-141 379.5q0 254 103.5 404t207 186.5t172.5 36.5t120.5 -12.5t91.5 -40t64.5 -72t24.5 -106.5t-27 -107.5
t-129.5 -125.5t-447.5 -118q1 -193 57 -289t189 -96t211.5 91t112.5 156z" />
    <glyph glyph-name="f" unicode="f" horiz-adv-x="665" 
d="M587 1479q-89 0 -132 -115t-59 -340h290l-6 -80l-290 -4q-7 -106 -12.5 -221.5t-16.5 -237.5t-20.5 -247t-36.5 -314t-118 -332t-282 -143q-160 0 -160 106q0 52 30 68t60 16t51.5 -26t21.5 -68q21 -16 65 -16t76 34.5t53 98t33.5 152.5t21.5 197.5t17 233.5t19 247
t18 233t19 217l-179 -2l10 88h180q36 255 129 393.5t288 138.5q71 0 109.5 -28t38.5 -79t-29.5 -66t-59.5 -15t-52 26t-22 68v8q-12 9 -55 9z" />
    <glyph glyph-name="g" unicode="g" horiz-adv-x="1060" 
d="M249 410q0 -336 148 -336q137 0 250 291t130 581q-52 27 -131 27q-78 0 -136.5 -26t-121 -88t-101 -191.5t-38.5 -257.5zM675 1047q155 0 260 -35q-16 -250 -39 -502t-38 -441t-96.5 -406.5t-430.5 -217.5q-153 0 -227 55t-75 107t26 83.5t66 31.5q40 0 68 -23t28 -60
t-13 -64q36 -58 125 -58t143 25.5t92 70t63.5 105.5t41.5 131t25 146.5t16 153.5t13 150t16 137h-7q-121 -413 -233.5 -436t-164.5 -23t-104 30t-102.5 109.5t-50.5 234.5q0 156 35.5 277.5t109 214.5t186 148.5t267.5 55.5z" />
    <glyph glyph-name="h" unicode="h" horiz-adv-x="1171" 
d="M290 128q0 -76 4 -128h-168q-2 22 -2 39t2.5 72t6.5 130.5t10 166t16 234t35 399.5t36 302t15 74l-144 -8l9 82q173 0 210.5 22t49.5 33h59q-6 -38 -14 -84.5t-32 -198t-41.5 -345.5t-22 -243t-7.5 -85h7q139 375 246 416t163 41q110 0 164.5 -74t54.5 -176
q0 -101 -9 -190t-19.5 -170.5t-19.5 -149t-9 -99.5q0 -60 16 -95t82 0t107 185l51 -13q-19 -100 -63 -162.5t-90.5 -94t-100.5 -31.5q-99 0 -135.5 49t-36.5 128q0 98 29.5 323.5t29.5 295.5q0 71 -4 92.5t-22.5 53.5t-68.5 32q-49 0 -95.5 -36t-90 -98t-81.5 -145
t-66 -176.5t-44.5 -192.5t-16.5 -175z" />
    <glyph glyph-name="i" unicode="i" horiz-adv-x="663" 
d="M279 815q0 129 -50 129q-45 0 -87 -48t-70 -150l-57 12q34 176 115.5 232.5t133.5 56.5q94 0 137.5 -57t43.5 -138q0 -80 -12 -159.5t-27 -168t-27 -180.5t-12 -178t63 -86t99 72t51 126l58 -12q-38 -183 -117.5 -236t-136.5 -53q-185 0 -185 193q0 120 40 342.5
t40 302.5zM465.5 1289.5q-32.5 -32.5 -66.5 -32.5t-53.5 8.5t-34.5 23.5t-23.5 36t-8.5 59.5t33.5 71.5t79.5 33t76 -31.5t30 -83.5t-32.5 -84.5z" />
    <glyph glyph-name="j" unicode="j" horiz-adv-x="609" 
d="M14 -471q34 0 68.5 34.5t62 92t48.5 131.5t36 152.5t25.5 156.5t17 142.5t9.5 110.5t11 164t8 196t1.5 154.5t-63.5 76.5q-58 0 -92 -72.5t-49 -129.5l-57 12q30 182 110.5 239.5t153.5 57.5t117.5 -52t44.5 -157q0 -294 -67 -843.5t-456 -549.5q-100 0 -127.5 39.5
t-27.5 63.5q0 45 23.5 74t62.5 29q40 0 65 -24t25 -69v-6q0 -7 -1 -12q17 -11 51 -11zM462 1292q-32 -32 -78 -32t-77.5 30t-31.5 69q0 65 32 98.5t79 33.5q46 0 77 -31.5t31 -83.5t-32 -84z" />
    <glyph glyph-name="k" unicode="k" horiz-adv-x="1064" 
d="M755 822q0 129 -89 129q-127 -8 -205.5 -186.5t-105.5 -266.5h2q196 0 297 82.5t101 241.5zM290 157q0 -105 4 -157h-168q-2 22 -2 40t2.5 72.5t6.5 129.5t10 165.5t16.5 234t35 400t35.5 302t15 73.5l-144 -8l9 82q174 0 209 22t47 33h59q-23 -108 -56 -379t-55 -577h7
q125 370 236 413.5t164 43.5q100 0 150 -65t50 -138q0 -140 -103.5 -248.5t-292.5 -142.5v-2q70 -2 99.5 -26.5t47 -51.5t50.5 -103t63 -127t73 -51q62 0 93 128l58 -12q-32 -155 -102.5 -193t-114.5 -38q-81 0 -132.5 61t-101.5 189t-80.5 169.5t-85.5 43.5l-54 -1
q-48 -177 -48 -282z" />
    <glyph glyph-name="l" unicode="l" horiz-adv-x="579" 
d="M302.5 107.5q10.5 -28.5 46.5 -28.5q61 0 97 72t51 127l59 -13q-19 -98 -65 -161.5t-93 -95t-122 -31.5q-150 0 -150 183q0 211 54.5 673.5t61 498t8.5 47t3.5 19.5t3.5 19l-146 -8l9 82q173 0 210.5 22t49.5 33h59q-6 -38 -55 -324t-70.5 -636t-21.5 -400t10.5 -78.5z
" />
    <glyph glyph-name="m" unicode="m" horiz-adv-x="1794" 
d="M938 124q0 -72 4 -124h-172q-2 22 -2 30v23q0 113 36.5 393t36.5 374q0 131 -98 131q-89 0 -201.5 -174.5t-143 -377.5t-30.5 -275t4 -124h-172q-2 22 -2 40q0 131 40 451t40 361q0 92 -55 92q-63 0 -99 -72t-51 -126l-57 12q19 98 65.5 162t93 95.5t107.5 31.5
q153 0 153 -208q0 -85 -14 -155t-18 -94h6q157 457 376 457q112 0 165 -72t53 -151t-13 -134t-22 -94h7q135 370 238 410.5t155 40.5q105 0 155 -73.5t50 -175.5q0 -149 -34 -362t-34 -246q0 -62 16 -96.5t83 0t108 184.5l57 -13q-19 -98 -65.5 -161.5t-93.5 -95t-102 -31.5
q-100 0 -135.5 49t-35.5 127q0 91 37 322.5t37 350.5q0 78 -34 101.5t-73 23.5t-85.5 -38.5t-88.5 -103t-77 -149.5t-60.5 -178.5t-40 -189.5t-14.5 -168z" />
    <glyph glyph-name="n" unicode="n" horiz-adv-x="1259" 
d="M281 1047q153 0 153 -214q0 -89 -14 -159t-18 -94h6q141 379 247.5 423t162.5 44q111 0 164 -75t53 -175q0 -144 -30.5 -360.5t-30.5 -248.5q0 -61 16 -95.5t81.5 0t106.5 185.5l58 -13q-19 -98 -65.5 -161.5t-93 -95t-101.5 -31.5q-100 0 -136 48.5t-36 127.5
q0 83 31.5 322.5t31.5 304.5q0 93 -21.5 132t-71.5 39t-98.5 -38.5t-116.5 -135.5t-130 -298t-62 -370q0 -57 4 -109h-172q-2 22 -2 40t2 49t6.5 78.5t12.5 117.5t18 164t17 150t11 94t8.5 74t4.5 85q0 92 -55 92q-63 0 -99 -72t-51 -126l-57 12q19 98 65.5 162t93 95.5
t107.5 31.5z" />
    <glyph glyph-name="o" unicode="o" horiz-adv-x="1068" 
d="M481 -23q-202 0 -302 128t-100 331q0 258 138.5 434.5t367.5 176.5q170 0 279.5 -119t109.5 -330q0 -260 -98 -390t-191.5 -180.5t-203.5 -50.5zM540 971q-59 0 -113.5 -38.5t-111 -140t-56.5 -310.5q0 -328 94.5 -377.5t144.5 -49.5t92.5 22t90 74.5t86.5 187t20 343.5
t-103.5 249t-143.5 40z" />
    <glyph glyph-name="p" unicode="p" horiz-adv-x="1169" 
d="M252 944q-101 0 -156 -198l-60 12q19 98 65.5 162t93 95.5t107.5 31.5q156 0 156 -214q0 -83 -29 -234h7q110 370 214 409t162 39t110.5 -32t103.5 -113.5t51 -241.5q0 -316 -157 -499.5t-448 -183.5q-50 0 -96 6l-16 -257q-3 -42 -5.5 -88.5t-11.5 -81.5l129 6v-84h-387
v61q77 0 94.5 61t21.5 113.5t11 141.5t17 202t20 216.5t18.5 194.5t19.5 205.5t11 148.5q0 67 -10 94.5t-36 27.5zM515 47q64 0 121.5 24.5t120.5 86t103 190t40 265.5q0 338 -143 338q-71 0 -160 -123t-140.5 -326t-60.5 -290t-14 -141q69 -24 133 -24z" />
    <glyph glyph-name="q" unicode="q" horiz-adv-x="1061" 
d="M935 -522h-387v61q77 0 95 61t31.5 260t62.5 566h-7q-74 -258 -169.5 -353.5t-218.5 -95.5t-194 107.5t-71 268.5t38.5 285.5t114.5 214.5t188 141t270 52t255 -20q-13 -164 -57 -618t-56 -628t-24 -224l129 6v-84zM404 73q46 0 92 40.5t107 140.5t119 310t68 395
q-62 17 -140 17t-135 -26t-119.5 -89t-102 -196t-39.5 -236q0 -104 7.5 -163t24 -102t44.5 -67t74 -24z" />
    <glyph glyph-name="r" unicode="r" horiz-adv-x="932" 
d="M431 822q0 -72 -30 -222h6q122 362 229.5 404.5t147.5 42.5q71 0 112 -32.5t41 -91.5q0 -58 -36 -75.5t-66 -17.5t-56 21.5t-31 63.5q-6 2 -8 2h-14q-85 0 -189 -172t-133.5 -375t-29.5 -250v-34q0 -34 4 -86h-170q-2 22 -2 40q0 146 20 329q20 184 26.5 239t11 92
t9.5 74.5t5 78.5q0 91 -56 91q-63 0 -99 -72t-51 -126l-57 12q19 98 65.5 162t93 95.5t98.5 31.5t80.5 -14t46 -40t25 -62.5t7.5 -108.5z" />
    <glyph glyph-name="s" unicode="s" horiz-adv-x="876" 
d="M233 209q0 -34 -18 -62q24 -65 83.5 -79.5t87.5 -14.5q111 0 166 50.5t55 144.5q0 52 -36.5 93.5t-92 79t-119.5 73.5t-156 103t-92 178t99 191.5t237 80.5t229.5 -56t91.5 -145q0 -45 -24.5 -70t-61.5 -25t-59.5 25t-22.5 59t19 63q-11 34 -51 57.5t-92 23.5
q-90 0 -147.5 -46t-57.5 -116q0 -90 143 -173t252 -157.5t109 -207.5t-107.5 -217.5t-258.5 -84.5t-249.5 58.5t-98.5 160.5q0 45 25.5 73t65.5 28t60.5 -27t20.5 -61z" />
    <glyph glyph-name="t" unicode="t" horiz-adv-x="746" 
d="M174 219q0 268 53 721l-182 -2l6 86q126 0 200.5 75t114.5 214h78l-37 -289h326l-6 -77l-328 -5q-9 -86 -19.5 -177.5t-25 -244t-14.5 -221.5q0 -118 18 -167.5t78 -49.5q108 0 193 143l53 -35q-92 -162 -169 -187.5t-131 -25.5q-108 0 -158 68t-50 174z" />
    <glyph glyph-name="u" unicode="u" horiz-adv-x="1215" 
d="M222 944q-97 0 -152 -198l-57 12q19 99 63 162.5t89.5 95t107.5 31.5q166 0 166 -199q0 -78 -21 -227.5t-33.5 -248t-12.5 -142.5q0 -75 21 -115.5t72 -40.5q50 0 97 38.5t111.5 135t123 295.5t58.5 372q0 57 -4 109h172q2 -22 2 -40q0 -87 -31.5 -354t-35.5 -304.5
t-8.5 -72t-4.5 -81.5q0 -90 55 -90q63 0 99 71t51 125l57 -12q-19 -97 -65 -161.5t-92.5 -96t-98.5 -31.5q-168 0 -168 182q0 85 37 277h-6q-140 -378 -238 -418.5t-154 -40.5q-110 0 -164 75.5t-54 175.5q0 148 32.5 359t32.5 245q0 63 -11 87.5t-36 24.5z" />
    <glyph glyph-name="v" unicode="v" horiz-adv-x="1078" 
d="M745 1047q120 0 183.5 -101.5t63.5 -253.5q0 -151 -40 -257q-76 -200 -214 -329t-290 -129q-228 0 -228 297q0 127 21 329t21 246q0 94 -58 94q-83 0 -139 -201l-57 13q16 102 60 165t90.5 95t109.5 32q164 0 164 -215q0 -95 -20 -330.5t-20 -284.5q0 -129 99 -129
q101 2 252 150t151 431q0 197 -100 240q-23 -51 -78 -51t-82 50.5t11 94.5t100 44z" />
    <glyph glyph-name="w" unicode="w" horiz-adv-x="1641" 
d="M1217.5 1016.5q29.5 30.5 92.5 30.5q119 0 182 -102.5t63 -256.5q0 -240 -122 -425.5t-239.5 -235.5t-179.5 -50q-113 0 -174 57.5t-61 192.5q0 27 3 59h-4q-44 -127 -144 -218t-209 -91q-213 0 -213 267q0 118 18.5 269.5t27 221t8.5 101.5q0 60 -11 84t-37 24
q-96 0 -151 -198l-57 12q19 99 63 162.5t89.5 95t117.5 31.5t114 -51t42 -150t-28 -342.5t-28 -294.5q0 -123 88 -123q66 0 130 48t146 196t82 468q0 121 -14 226h175q8 -36 8 -116q0 -130 -34 -353.5t-34 -311.5q0 -159 115 -159q100 0 224 105t157 254t33 209
q0 104 -22 169t-77 88q-23 -51 -80 -51t-73 32.5t-16 63.5q0 32 29.5 62.5z" />
    <glyph glyph-name="x" unicode="x" horiz-adv-x="1117" 
d="M145 -23q-49 0 -82 28.5t-33 74.5t24.5 71t53.5 25q48 0 64 -25t19 -59q9 -2 25 -2t80 49t174 377q-94 259 -116 308.5t-43 73.5t-43 24q-98 0 -109 -202l-59 -2q0 246 86 287.5t136 41.5t85.5 -26.5t62.5 -77.5t51.5 -126.5t58.5 -172.5h2q96 237 189 320t160 83
q66 0 94.5 -28.5t28.5 -58.5q0 -49 -24.5 -75t-59.5 -26q-59 0 -94 61q-110 -16 -258 -378l14 -36q108 -257 152 -330.5t92 -73.5q74 0 104 162l58 -7q-37 -280 -205 -280q-71 0 -114 33t-86.5 117.5t-121.5 285.5h-2q-132 -382 -223.5 -409t-140.5 -27z" />
    <glyph glyph-name="y" unicode="y" horiz-adv-x="1053" 
d="M74 -332q28 0 51 -25.5t23 -73.5v-8q26 -13 54 -13t59 17t87.5 67t157.5 215q-87 569 -249 961q-41 106 -95 106q-35 0 -56.5 -43t-21.5 -93t3 -78l-66 -7q-3 27 -3 69q0 111 44 198t145 87q130 0 203 -161.5t118 -364t63 -280.5t30 -202h4q157 274 195.5 447.5
t38.5 266.5t-31 136q-19 -13 -53 -13t-56.5 24.5t-22.5 51.5q0 46 28 70.5t71 24.5q83 0 121.5 -75.5t38.5 -182.5q0 -329 -249 -781q-173 -315 -307 -439t-267 -124q-72 4 -114 39.5t-42 83.5t20.5 68t35 26t42.5 6z" />
    <glyph glyph-name="z" unicode="z" horiz-adv-x="965" 
d="M865 204q0 -105 -62 -166t-138 -61t-196.5 37t-204 37t-163.5 -74l-65 51q260 387 686 904h-4q-79 -84 -149 -84t-128 20.5t-89.5 30t-59.5 9.5q-54 0 -87.5 -27.5t-33.5 -79.5t14 -91l-55 -18q-27 76 -27 130q0 101 65.5 163t142.5 62q78 0 141 -22.5t100 -32.5t84 -10
q106 0 184 66l61 -57q-35 -44 -297 -367.5t-418 -536.5h4q94 106 234 106q48 0 114 -23.5t100.5 -34.5t68.5 -11q113 0 113 111q0 34 -15 78l55 18q25 -70 25 -127z" />
    <glyph glyph-name="braceleft" unicode="{" horiz-adv-x="680" 
d="M545 -555q-342 1 -342 371q0 96 21 256t21 215q0 102 -42.5 144.5t-144.5 42.5h-47v107h53q124 0 166 56t42 193l-6 249q0 254 86 365.5t302 111.5h57l-4 -70h-23q-146 0 -206.5 -84.5t-60.5 -272.5l11 -290q0 -262 -237 -310v-4q144 -27 175.5 -114.5t31.5 -133.5
t-6.5 -97.5t-22 -159t-17 -148t-1.5 -85.5q0 -127 56.5 -206t188.5 -79h11l-4 -57h-58z" />
    <glyph glyph-name="bar" unicode="|" horiz-adv-x="482" 
d="M361 1556l-120 -2111h-128l105 2111h143z" />
    <glyph glyph-name="braceright" unicode="}" horiz-adv-x="679" 
d="M118 1556q342 0 342 -371q0 -96 -21 -256t-21 -215q0 -102 43 -144q42 -42 144 -43h47v-107h-53q-124 0 -166 -56t-42 -193l6 -249q0 -254 -86 -365q-86 -112 -302 -112h-57l4 70h23q146 0 206 85q61 85 61 272l-11 290q0 262 237 310v4q-144 27 -190 157q-16 45 -17 91
q0 46 7 98q6 51 14 107q23 159 24 199q2 40 2 86q0 127 -56 206t-189 79h-11l4 57h58z" />
    <glyph glyph-name="asciitilde" unicode="~" horiz-adv-x="1172" 
d="M803 603q128 0 244 97l-6 -120q-107 -107 -258 -107q-111 0 -195 61t-123 75t-81 14q-73 0 -125 -21.5t-132 -73.5l6 121q83 60 139 84.5t122 24.5t106.5 -11.5t71 -28.5t55 -37.5t68 -49t108.5 -28.5z" />
    <glyph glyph-name="nonbreakingspace" unicode="&#xa0;" horiz-adv-x="0" 
 />
    <glyph glyph-name="exclamdown" unicode="&#xa1;" horiz-adv-x="518" 
d="M115 -408q-26 35 -26 66q0 30 1 35q0 4 122 860h75l31 -852q0 -57 -23 -88q-42 -56 -99 -56q-55 0 -81 35zM355 1022q33 -35 33 -76q0 -69 -38 -111q-38 -43 -89 -41q-50 2 -81 34q-31 33 -31 79q1 46 12 70t29 42q38 38 85 38t80 -35z" />
    <glyph glyph-name="cent" unicode="&#xa2;" horiz-adv-x="988" 
d="M707 808q0 31 26 58q-11 57 -56 83.5t-105 26.5t-106 -22t-95.5 -77t-78 -170t-28.5 -229q0 -211 67.5 -307.5t182.5 -96.5q139 0 211 99t102 172l72 -34q-132 -303 -370 -334l-23 -241h-107l21 241q-243 28 -289.5 185.5t-46.5 243.5t12 155t50 175t142 203t253 108
l18 227h121l-22 -235q153 -31 188 -110.5t35 -124.5t-23.5 -71.5t-57.5 -26.5t-49.5 8.5t-25 21.5t-14 27t-4.5 45z" />
    <glyph glyph-name="sterling" unicode="&#xa3;" horiz-adv-x="1120" 
d="M816 1277q-30 114 -172 114q-50 0 -147 -57t-97 -290q0 -86 11.5 -160t22.5 -147h315l-7 -98h-295l4 -54t2 -55q0 -95 -31.5 -164.5t-94.5 -141.5q57 8 119 8t121 -18t109.5 -39.5t93 -39.5t77.5 -18q97 0 117 129h63q-19 -197 -97 -238t-124 -41t-86 14t-78.5 35
t-131 80.5t-205.5 59.5l-19 -2q-12 -78 -55.5 -132.5t-86.5 -54.5q-42 0 -63 21t-21 62.5t52 87.5t133 69q68 96 68 241q0 78 -24 191h-167l6 98h139q-24 118 -24 230q0 113 28.5 202.5t81 156.5t126.5 104t200.5 37t198 -79t71.5 -171t-85 -92q-55 0 -65 33.5t-10 44.5
q0 47 27 74z" />
    <glyph glyph-name="currency" unicode="&#xa4;" horiz-adv-x="1136" 
d="M584 845q-50 0 -84 -18t-68.5 -58t-54.5 -117t-20 -129q0 -124 44.5 -214.5t144.5 -90.5q146 0 185 139.5t39 196.5t-9.5 104.5t-31.5 89t-58.5 69.5t-86.5 28zM584 918q134 0 225 -81l118 139l76 -66l-133 -143q67 -104 67 -236q0 -133 -85 -245l115 -138l-83 -66
l-101 134q-104 -78 -241.5 -78t-233.5 77l-113 -133l-76 66l127 137q-60 92 -60 228t93 255l-117 142l83 66l103 -139q102 81 236 81z" />
    <glyph glyph-name="yen" unicode="&#xa5;" horiz-adv-x="1431" 
d="M460 1270q0 -49 44 -127q198 -342 267 -445h4q300 525 341 580.5t56 71.5l-162 -7l4 91h418l-4 -68q-138 -8 -207 -103.5t-108 -160.5l-266 -456l245 -1l-4 -88l-263 -2l-8 -130l265 -1l-4 -88l-267 -2l-4 -90q-4 -109 -14 -162l170 8l-4 -90h-473l4 68q102 4 123.5 56.5
t23.5 97.5t5 97v14l-273 -1l6 96l272 -2l7 128l-273 -1l7 96l211 -1l-269 468q-88 152 -98 232l-127 -5l4 91h520l-4 -68q-165 0 -165 -96z" />
    <glyph glyph-name="brokenbar" unicode="&#xa6;" horiz-adv-x="535" 
d="M316 207l-47 -762h-129l33 762h143zM386 1556l-48 -762h-129l33 762h144z" />
    <glyph glyph-name="section" unicode="&#xa7;" horiz-adv-x="1074" 
d="M232 674q0 -167 120.5 -248t224.5 -143t166 -120q45 50 68 119.5t23 135.5t-26 118t-76.5 102.5t-203.5 141t-212 145.5q-38 -48 -61 -115.5t-23 -81.5v-54zM272 972q-71 93 -71 211t99.5 245.5t311.5 127.5q155 0 256.5 -75.5t101.5 -172.5q0 -72 -35 -91t-58 -19
q-42 0 -62.5 25t-20.5 60q0 36 25 68q0 50 -64 88.5t-142 38.5q-139 0 -204.5 -73.5t-65.5 -147.5q0 -73 28 -121.5t73.5 -89.5t103.5 -77.5t165.5 -101.5t192 -155t84.5 -231t-78 -232t-128 -130q77 -95 77 -215q0 -121 -97.5 -245.5t-313.5 -124.5q-155 0 -256.5 75.5
t-101.5 172.5q0 73 35 92t58 19q42 0 62.5 -25t20.5 -61t-25 -68q0 -50 64 -88.5t144 -38.5q145 0 207.5 70.5t62.5 163.5q0 121 -102.5 193.5t-166.5 114.5t-220.5 144.5t-156.5 298.5q0 150 73.5 242.5t123.5 132.5z" />
    <glyph glyph-name="dieresis" unicode="&#xa8;" horiz-adv-x="719" 
d="M505 1261q-38 0 -63.5 31.5t-25.5 67.5q1 58 32.5 91.5t60.5 33.5q49 0 81.5 -44t4.5 -112t-90 -68zM204 1261q-38 0 -63 31.5t-25 67.5q1 58 32 91.5t60 33.5q49 0 81.5 -44t4.5 -112t-90 -68z" />
    <glyph glyph-name="copyright" unicode="&#xa9;" horiz-adv-x="1794" 
d="M1315 418q-162 -209 -458 -209q-73 0 -159 36t-183.5 136t-97.5 302t144 373t387 171q152 0 265 -84h2l-5 74h99l-19 -345h-77q-19 250 -263 250q-133 0 -242 -113.5t-109 -288.5t100.5 -281.5t254.5 -106.5q117 0 194.5 57t107.5 92zM224 699v-31q0 -286 174 -479
t470 -193q208 0 371.5 105t254 278.5t90.5 375.5q0 286 -178.5 486.5t-472.5 200.5t-492 -208.5t-216 -520.5q-1 -11 -1 -14zM947 1536q117 0 218.5 -27.5t229 -102t224 -251.5t96.5 -402t-114.5 -423t-311 -315t-429.5 -117q-350 0 -558.5 212.5t-208.5 550.5v128
q0 128 152 378t368.5 309.5t333.5 59.5z" />
    <glyph glyph-name="ordfeminine" unicode="&#xaa;" horiz-adv-x="824" 
d="M470 1410q-113 0 -169 -107.5t-56 -275.5q0 -167 78 -167q50 0 118.5 107.5t92 238t25.5 186.5q-31 18 -89 18zM628 944q0 -49 3 -69t20 -20q48 0 78 106l45 -10q-43 -172 -160 -172q-53 0 -73.5 31.5t-20.5 89.5t24 170h-4q-80 -247 -153.5 -269t-100.5 -22
q-155 0 -155 225q0 197 94.5 330t275.5 133q93 0 185 -22q-58 -452 -58 -501z" />
    <glyph glyph-name="guillemotleft" unicode="&#xab;" horiz-adv-x="1058" 
d="M487 546v6l434 399l51 -51l-280 -342v-4l229 -342l-59 -55zM51 540v8l602 575l49 -55l-448 -528v-4l372 -498l-59 -53z" />
    <glyph glyph-name="logicalnot" unicode="&#xac;" horiz-adv-x="1199" 
d="M146 705l911 -5l-18 -378h-98l5 265l-806 -3z" />
    <glyph glyph-name="uni00AD" unicode="&#xad;" horiz-adv-x="987" 
d="M132 723h727v-129l-727 -8v137z" />
    <glyph glyph-name="registered" unicode="&#xae;" horiz-adv-x="1794" 
d="M836 744q30 0 60 3.5t83.5 19.5t102.5 65t49 132t-63.5 130.5t-132.5 47.5t-94.5 -12t-39.5 -37.5t-19 -123.5l-12 -221h2q34 -4 64 -4zM802 660q-9 0 -36 6l-10 -205q-2 -35 -5 -60.5t-5 -44.5l98 4v-81h-338l4 69q68 2 85 38.5t22 125.5l28 535q2 27 3.5 52.5t4.5 45.5
l-102 -10l4 86q31 1 70.5 2.5t110.5 4t159 2.5q189 0 287 -69.5t98 -201.5t-92.5 -195t-168.5 -83v-2q37 -17 85 -93q99 -158 142 -202t91 -44l-4 -70h-168q-31 8 -66 50t-77 110t-78 126.5t-65 103.5h-77zM224 699v-31q0 -286 174 -479t470 -193q208 0 371.5 105t254 278.5
t90.5 375.5q0 286 -178.5 486.5t-472.5 200.5t-492 -208.5t-216 -520.5q-1 -11 -1 -14zM947 1536q117 0 218.5 -27.5t229 -102t224 -251.5t96.5 -402t-114.5 -423t-311 -315t-429.5 -117q-350 0 -558.5 212.5t-208.5 550.5v128q0 128 152 378t368.5 309.5t333.5 59.5z" />
    <glyph glyph-name="macron" unicode="&#xaf;" horiz-adv-x="733" 
d="M98 1436h543l-6 -107l-543 -8z" />
    <glyph glyph-name="degree" unicode="&#xb0;" horiz-adv-x="793" 
d="M671 1376.5q79 -90.5 72 -224.5t-101.5 -220.5t-232.5 -86.5t-216 84.5t-71 218.5t102.5 226.5t231.5 92.5t215 -90.5zM422 941q83 0 154 82t41 188.5t-80.5 134t-92.5 27.5q-83 0 -140.5 -65t-60.5 -153t46.5 -151t132.5 -63z" />
    <glyph glyph-name="plusminus" unicode="&#xb1;" horiz-adv-x="1164" 
d="M1004 0h-911l6 102l911 9zM132 733l392 -2l17 326h123l-17 -326l396 -2l-6 -107l-396 -2l-18 -344h-123l18 343l-392 -1z" />
    <glyph glyph-name="twosuperior" unicode="&#xb2;" horiz-adv-x="766" 
d="M283 1258q0 -27 -16.5 -44t-41.5 -17t-42 17t-17 47q0 70 74.5 138t189.5 68q159 0 197.5 -76t38.5 -118q0 -85 -51 -160.5t-206 -184.5t-181 -190l258 -7q62 0 92.5 18t34.5 67h49l-19 -189h-524q8 162 109.5 252t149.5 128q150 117 149 253q0 58 -32 97.5t-102 39.5
t-97.5 -37.5t-31.5 -54.5q19 -20 19 -47z" />
    <glyph glyph-name="threesuperior" unicode="&#xb3;" horiz-adv-x="733" 
d="M271 1267q0 -24 -16.5 -40t-40.5 -16t-39.5 17.5t-15.5 45.5q0 67 71 130t181 63q160 0 193 -73.5t33 -108.5q0 -66 -49.5 -123t-135.5 -76q99 -8 152 -66t53 -127q0 -123 -80.5 -194.5t-203.5 -71.5t-190 51.5t-67 119.5q0 101 77 101q24 0 39 -19t15 -47t-20 -50
q3 -42 40 -66t83 -24q83 0 131.5 56.5t48.5 126.5q0 110 -59 141.5t-101 31.5h-29q-29 0 -38 -2l2 55h24q111 0 151 56.5t40 96.5q0 73 -33.5 110.5t-93.5 36.5q-61 -1 -94 -29.5t-41 -64.5q13 -17 13 -41z" />
    <glyph glyph-name="acute" unicode="&#xb4;" horiz-adv-x="492" 
d="M337 1562q62 0 62 -66q0 -41 -46 -91l-211 -219l-49 41l159 270q39 65 85 65z" />
    <glyph glyph-name="mu" unicode="&#xb5;" horiz-adv-x="1212" 
d="M321 396q0 -314 202 -314q75 0 141 37t111 97l43 808h155q-39 -757 -39 -758v-29q0 -150 82 -150q38 0 89 35l20 -31q-56 -73 -116.5 -93.5t-96.5 -20.5q-116 0 -133 141q-137 -141 -306 -141q-84 0 -136.5 38.5t-88.5 131.5h-6q0 -176 25 -357.5t25 -220.5
q0 -124 -84 -124q-51 0 -70.5 34.5t-19.5 70.5t75 1474h160q-32 -572 -32 -628z" />
    <glyph glyph-name="mu" unicode="&#x3bc;" horiz-adv-x="1212" 
d="M321 396q0 -314 202 -314q75 0 141 37t111 97l43 808h155q-39 -757 -39 -758v-29q0 -150 82 -150q38 0 89 35l20 -31q-56 -73 -116.5 -93.5t-96.5 -20.5q-116 0 -133 141q-137 -141 -306 -141q-84 0 -136.5 38.5t-88.5 131.5h-6q0 -176 25 -357.5t25 -220.5
q0 -124 -84 -124q-51 0 -70.5 34.5t-19.5 70.5t75 1474h160q-32 -572 -32 -628z" />
    <glyph glyph-name="paragraph" unicode="&#xb6;" horiz-adv-x="1003" 
d="M407 1434h448l-104 -1956h-135l99 1872l-178 -5l-101 -1867h-136l74 1358q-189 15 -232.5 117.5t-39.5 178.5q8 141 97.5 221.5t207.5 80.5z" />
    <glyph glyph-name="periodcentered" unicode="&#xb7;" horiz-adv-x="485" 
d="M160.5 574q-32.5 36 -32.5 75q0 67 38.5 107t87.5 40t78 -35t29 -87v-7q-2 -55 -39 -92t-83 -37t-78.5 36z" />
    <glyph glyph-name="cedilla" unicode="&#xb8;" horiz-adv-x="600" 
d="M506 -238q0 -48 -20.5 -81.5t-88 -86.5t-297.5 -86l-8 64q179 31 220.5 78.5t41.5 77.5q0 63 -68 63q-52 0 -96 -31l-69 35l72 221h102l-62 -174q60 39 132 39t106.5 -35.5t34.5 -83.5z" />
    <glyph glyph-name="onesuperior" unicode="&#xb9;" horiz-adv-x="553" 
d="M153 695q85 0 96 59t13 90l25 479h-5l-131 -76l-28 54l231 166h51l-32 -684q-5 -60 -11 -80l107 4l-4 -70h-314z" />
    <glyph glyph-name="ordmasculine" unicode="&#xba;" horiz-adv-x="742" 
d="M215.5 817q-90.5 48 -90.5 271q0 147 87 263t230 116q105 0 174.5 -80t69.5 -229t-86 -269t-224 -120q-70 0 -160.5 48zM295.5 1317.5q-47.5 -88.5 -47.5 -241.5q0 -154 49 -198.5t93 -44.5q83 0 126 92.5t45 180.5q2 89 -4.5 134.5t-32 105.5t-103.5 60t-125.5 -88.5z
" />
    <glyph glyph-name="guillemotright" unicode="&#xbb;" horiz-adv-x="1067" 
d="M560 562v-6l-434 -399l-51 51l280 342v4l-229 342l59 55zM996 568v-8l-602 -575l-49 55l448 528v4l-372 498l59 53z" />
    <glyph glyph-name="onequarter" unicode="&#xbc;" horiz-adv-x="1469" 
d="M1290 1412l-1035 -1445l-63 47l1026 1453zM147 695q85 0 102 91q5 27 7 58l25 479h-5l-131 -76l-28 54l231 166h51l-32 -684q-5 -60 -11 -80l107 4l-4 -70h-314zM891 297l253 -4l21 367h-2zM1326 1h-299l2 59q86 2 102 78q5 24 7 53l1 25h-347l4 61l432 566h55l-27 -551
l115 -2l-4 -74h-115l-7 -149l86 4z" />
    <glyph glyph-name="onehalf" unicode="&#xbd;" horiz-adv-x="1579" 
d="M1280 1412l-1035 -1445l-63 47l1026 1453zM147 695q85 0 102 91q5 27 7 58l25 479h-5l-131 -76l-28 54l231 166h51l-32 -684q-5 -60 -11 -80l107 4l-4 -70h-314zM1092 632q0 -27 -16 -44t-42 -17q-25 0 -42 17t-17 47q0 70 74 138t190 68q159 1 217 -113q20 -38 19 -81
q0 -85 -51 -161q-51 -75 -206 -184t-181 -190l258 -7q62 1 83 13q40 23 44 72h49l-19 -189h-524q8 161 164 301q46 40 94 79q150 117 150 253q0 58 -32 98q-32 39 -102 39q-70 -1 -113 -59q-12 -16 -16 -33q19 -20 19 -47z" />
    <glyph glyph-name="threequarters" unicode="&#xbe;" horiz-adv-x="1535" 
d="M1357 1412l-1035 -1445l-63 47l1026 1453zM249 1267q0 -24 -16 -40q-17 -16 -41 -16t-40 17q-16 18 -15 46q0 67 71 130t181 63q160 1 210 -111q16 -36 16 -71q0 -66 -49 -123t-136 -76q99 -8 152 -66t53 -127q0 -123 -80 -194q-80 -72 -204 -72q-123 0 -190 52t-67 119
q0 101 77 101q24 0 39 -19t15 -47t-20 -50q3 -42 39 -66t84 -24q83 0 131 56q49 56 49 127q0 110 -84 156q-32 18 -76 17h-50q-8 0 -17 -2l2 55h24q111 0 159 68q32 44 32 85q0 73 -33 111q-33 37 -94 36q-61 -2 -94 -30t-41 -64q13 -17 13 -41zM959 297l253 -4l21 367h-2z
M1394 1h-299l2 59q86 2 102 78q5 24 7 53l1 25h-347l4 61l432 566h55l-27 -551l115 -2l-4 -74h-115l-7 -149l86 4z" />
    <glyph glyph-name="questiondown" unicode="&#xbf;" horiz-adv-x="952" 
d="M651 -147q0 44 26 72q25 28 67 28t69 -28t27 -73t-30 -98q-30 -52 -87 -95q-131 -101 -321 -102q-190 0 -283 90t-93 233t142 277q55 52 113 96t111 84q114 87 114 146q0 23 -18 43q-18 19 -61 19t-80 -15l-21 72q63 37 138 37t110 -22q70 -44 70 -101q0 -56 -32 -98
t-82 -85q-50 -42 -105 -87q-54 -44 -103 -98q-110 -122 -111 -282q0 -160 125 -210q45 -18 101 -19q95 0 164 46t80 97q-30 29 -30 73zM512 1057q33 0 65 -30q31 -30 31 -70q0 -65 -37 -104q-37 -38 -82 -38q-44 0 -73 32t-29 79v10q2 50 27 76t45 35q20 10 53 10z" />
    <glyph glyph-name="Agrave" unicode="&#xc0;" 
d="M539 958q-60 -151 -164 -428h469l-216 658h-4zM350 0h-379l3 68q100 3 172 152q22 47 45 104l462 1149h46l391 -1166q43 -143 43 -210v-15l133 8v-90h-449l2 68q124 3 124 103q0 34 -17 91l-59 192l-524 -12l-83 -219q-28 -75 -63 -141l153 8v-90zM432 1836q0 20 14 40
t51 20t83 -41l260 -241l-43 -58l-299 191q-66 42 -66 89z" />
    <glyph glyph-name="Aacute" unicode="&#xc1;" 
d="M539 958q-60 -151 -164 -428h469l-216 658h-4zM350 0h-379l3 68q100 3 172 152q22 47 45 104l462 1149h46l391 -1166q43 -143 43 -210v-15l133 8v-90h-449l2 68q124 3 124 103q0 34 -17 91l-59 192l-524 -12l-83 -219q-28 -75 -63 -141l153 8v-90zM969 1896q37 0 51 -20
t14 -40q0 -46 -66 -89l-299 -191l-43 58l260 241q46 41 83 41z" />
    <glyph glyph-name="Acircumflex" unicode="&#xc2;" 
d="M539 958q-60 -151 -164 -428h469l-216 658h-4zM350 0h-379l3 68q100 3 172 152q22 47 45 104l462 1149h46l391 -1166q43 -143 43 -210v-15l133 8v-90h-449l2 68q124 3 124 103q0 34 -17 91l-59 192l-524 -12l-83 -219q-28 -75 -63 -141l153 8v-90zM695 1905h4l370 -289
l-37 -57l-356 182h-4l-348 -178l-31 55z" />
    <glyph glyph-name="Atilde" unicode="&#xc3;" 
d="M539 958q-60 -151 -164 -428h469l-216 658h-4zM350 0h-379l3 68q100 3 172 152q22 47 45 104l462 1149h46l391 -1166q43 -143 43 -210v-15l133 8v-90h-449l2 68q124 3 124 103q0 34 -17 91l-59 192l-524 -12l-83 -219q-28 -75 -63 -141l153 8v-90zM518 1737
q-89 0 -167 -117l-58 35q65 141 181 185q36 14 81 13q47 0 87 -21q40 -20 74 -46t65 -47q32 -21 73 -21q102 0 178 121l54 -29q-83 -208 -250 -208q-53 0 -93 21q-39 21 -75 47t-72 46q-36 21 -78 21z" />
    <glyph glyph-name="Adieresis" unicode="&#xc4;" 
d="M539 958q-60 -151 -164 -428h469l-216 658h-4zM350 0h-379l3 68q100 3 172 152q22 47 45 104l462 1149h46l391 -1166q43 -143 43 -210v-15l133 8v-90h-449l2 68q124 3 124 103q0 34 -17 91l-59 192l-524 -12l-83 -219q-28 -75 -63 -141l153 8v-90zM854 1593q-20 -1 -38 9
t-31 26t-20 39q-7 22 -6 48q1 27 11 49t24 38t34 26t41 10t39 -10t29 -26q12 -16 18 -38t5 -49q-1 -26 -10 -48q-10 -23 -24 -39t-33 -26t-39 -9zM523 1593q-20 -1 -38 9t-31 26t-20 39q-7 22 -6 48q0 27 10 49t25 38t35 26t40 10t38 -10t30 -26t18 -38t5 -49
q-1 -26 -10 -48q-9 -23 -23 -39t-34 -26q-19 -10 -39 -9z" />
    <glyph glyph-name="Aring" unicode="&#xc5;" 
d="M539 958q-60 -151 -164 -428h469l-216 658h-4zM350 0h-379l3 68q100 3 172 152q22 47 45 104l462 1149h46l391 -1166q43 -143 43 -210v-15l133 8v-90h-449l2 68q124 3 124 103q0 34 -17 91l-59 192l-524 -12l-83 -219q-28 -75 -63 -141l153 8v-90zM839 1913
q69 -55 69 -159t-67 -167q-67 -64 -158 -64q-155 -1 -211 119q-20 42 -19 97q-1 55 19 97t52 71q66 61 156 61t159 -55zM593 1863q-31 -45 -31 -95q0 -89 36 -136t86 -46q51 1 74 31q41 52 41 105q1 54 -9 88t-26 55q-32 43 -87 43q-53 0 -84 -45z" />
    <glyph glyph-name="AE" unicode="&#xc6;" horiz-adv-x="1956" 
d="M941 530l33 662h-2l-472 -662h441zM1380.5 707.5q-45.5 2.5 -117.5 2.5t-143 -4l-25 -464q-6 -114 -15 -160l396 -6q289 -4 307 323h69l-32 -399h-1049l4 74q86 2 117 46.5t35 145.5l10 187l-500 -11l-260 -359v-2l158 9l-4 -90h-381l4 68q96 0 155.5 78.5t81.5 109.5
l796 1094l1 2l-184 -9l4 91h1016l-8 -359h-68q11 243 -97 265.5t-165 21.5l-176 -4q-107 -4 -134 -53t-34 -191l-18 -330h151q141 0 179.5 24t54 62.5t18.5 106.5h67l-22 -447h-68q6 125 -36 150t-87.5 27.5z" />
    <glyph glyph-name="Ccedilla" unicode="&#xc7;" horiz-adv-x="1411" 
d="M948 -239q0 -50 -21 -86t-95.5 -96.5t-310.5 -92.5l-12 68q111 18 168.5 52t79.5 61t22 74t-64 47t-103 -32l-66 35l59 190q-233 48 -368 230t-135 436q0 324 157.5 523.5t309.5 248t276 48.5q224 0 406 -123l-5 111h111l-25 -475h-74q-10 191 -118 297t-287 106
q-232 0 -395 -196t-163 -509q0 -267 146.5 -435.5t362.5 -168.5q217 0 330.5 86t158.5 143l51 -43q-234 -293 -594 -293l-35 1l-46 -122q62 37 118 37q90 0 125.5 -36t35.5 -86z" />
    <glyph glyph-name="Egrave" unicode="&#xc8;" horiz-adv-x="1268" 
d="M407 236q-6 -121 -14 -160l391 6q144 2 223 73t88 244h70l-33 -399h-1049l5 68q104 4 132 73q16 40 21 178l49 885q4 78 15 148l-150 -9l4 91h977l-8 -359h-68q13 241 -154 277q-50 10 -108 10l-176 -4q-107 -4 -138 -61q-21 -39 -30 -183l-18 -328l147 -2q140 -2 180 23
q41 25 57 63t19 107h68l-23 -447h-67q7 126 -49 160q-28 18 -75 20q-46 2 -112 1l-149 -6zM507 1836q0 20 14 40t51 20t83 -41l260 -241l-43 -58l-299 191q-66 42 -66 89z" />
    <glyph glyph-name="Eacute" unicode="&#xc9;" horiz-adv-x="1268" 
d="M407 236q-6 -121 -14 -160l391 6q144 2 223 73t88 244h70l-33 -399h-1049l5 68q104 4 132 73q16 40 21 178l49 885q4 78 15 148l-150 -9l4 91h977l-8 -359h-68q13 241 -154 277q-50 10 -108 10l-176 -4q-107 -4 -138 -61q-21 -39 -30 -183l-18 -328l147 -2q140 -2 180 23
q41 25 57 63t19 107h68l-23 -447h-67q7 126 -49 160q-28 18 -75 20q-46 2 -112 1l-149 -6zM997 1836q0 -46 -66 -89l-299 -191l-43 58l260 241q46 41 83 41t51 -20t14 -40z" />
    <glyph glyph-name="Ecircumflex" unicode="&#xca;" horiz-adv-x="1268" 
d="M407 236q-6 -121 -14 -160l391 6q144 2 223 73t88 244h70l-33 -399h-1049l5 68q104 4 132 73q16 40 21 178l49 885q4 78 15 148l-150 -9l4 91h977l-8 -359h-68q13 241 -154 277q-50 10 -108 10l-176 -4q-107 -4 -138 -61q-21 -39 -30 -183l-18 -328l147 -2q140 -2 180 23
q41 25 57 63t19 107h68l-23 -447h-67q7 126 -49 160q-28 18 -75 20q-46 2 -112 1l-149 -6zM739 1905h4l370 -289l-37 -57l-356 182h-4l-348 -178l-31 55z" />
    <glyph glyph-name="Edieresis" unicode="&#xcb;" horiz-adv-x="1268" 
d="M407 236q-6 -121 -14 -160l391 6q144 2 223 73t88 244h70l-33 -399h-1049l5 68q104 4 132 73q16 40 21 178l49 885q4 78 15 148l-150 -9l4 91h977l-8 -359h-68q13 241 -154 277q-50 10 -108 10l-176 -4q-107 -4 -138 -61q-21 -39 -30 -183l-18 -328l147 -2q140 -2 180 23
q41 25 57 63t19 107h68l-23 -447h-67q7 126 -49 160q-28 18 -75 20q-46 2 -112 1l-149 -6zM895 1593q-20 -1 -38 9t-31 26t-20 39q-7 22 -6 48q0 27 10 49t25 38t35 26t40 10t38 -10t30 -26t18 -38t5 -49q-1 -26 -10 -48q-9 -23 -23 -39t-34 -26q-19 -10 -39 -9zM564 1593
q-20 -1 -38 9t-31 26t-20 39q-7 22 -6 48q1 27 11 49t24 38t34 26t41 10t39 -10t29 -26q12 -16 18 -38t5 -49q-1 -26 -10 -48q-10 -23 -24 -39t-33 -26t-39 -9z" />
    <glyph glyph-name="Igrave" unicode="&#xcc;" horiz-adv-x="680" 
d="M289 1204q4 78 15 148l-148 -9l4 91h453l-4 -68q-98 -4 -129 -63q-20 -39 -25 -169l-47 -890q-4 -109 -14 -162l147 8l-4 -90h-453l5 68q103 4 132 73q15 33 17 79t4 99zM98 1836q0 20 14 40t51 20t83 -41l260 -241l-43 -58l-299 191q-66 42 -66 89z" />
    <glyph glyph-name="Iacute" unicode="&#xcd;" horiz-adv-x="681" 
d="M289 1204q4 78 15 148l-148 -9l4 91h453l-4 -68q-98 -4 -129 -63q-20 -39 -25 -169l-47 -890q-4 -109 -14 -162l147 8l-4 -90h-453l5 68q103 4 132 73q15 33 17 79t4 99zM732 1836q0 -46 -66 -89l-299 -191l-43 58l260 241q46 41 83 41t51 -20t14 -40z" />
    <glyph glyph-name="Icircumflex" unicode="&#xce;" horiz-adv-x="680" 
d="M288 1204q4 78 15 148l-148 -9l4 91h453l-4 -68q-99 -4 -124 -53.5t-30 -178.5l-47 -890q-4 -110 -14 -162l147 8l-4 -90h-453l5 68q103 4 125.5 58.5t27.5 192.5zM411 1905h4l350 -289l-37 -57l-333 182h-4l-330 -176l-33 51z" />
    <glyph glyph-name="Idieresis" unicode="&#xcf;" horiz-adv-x="681" 
d="M542 1593q-30 0 -57.5 33t-27.5 71q0 63 32.5 102t75.5 39q44 0 68.5 -33t24.5 -82v-8q-2 -51 -25 -77t-42 -35.5t-49 -9.5zM230 1593q-30 0 -57.5 33t-27.5 71q0 63 32.5 102t75.5 39q44 0 68.5 -33t24.5 -82v-8q-2 -51 -25 -77t-42 -35.5t-49 -9.5zM289 1204
q4 78 15 148l-148 -9l4 91h453l-4 -68q-98 -4 -123.5 -53t-30.5 -179l-47 -890q-4 -109 -14 -162l147 8l-4 -90h-453l5 68q103 4 124.5 55t24 96.5t4.5 99.5z" />
    <glyph glyph-name="Eth" unicode="&#xd0;" horiz-adv-x="1514" 
d="M394 82q68 -4 80 -4h139q275 0 448 200.5t173 499.5q0 418 -227.5 500t-384.5 82q-109 0 -134.5 -46.5t-32.5 -184.5l-19 -357h263l-6 -92l-262 -4l-23 -434q-6 -120 -14 -160zM1425 806q0 -136 -22.5 -231.5t-91.5 -228.5t-253 -239.5t-443 -106.5h-531l5 68
q103 4 124.5 57t24 96.5t4.5 97.5l19 355l-214 -2l7 100h213l24 432q4 78 15 148l-152 -9l6 91l475 2q567 0 678.5 -247t111.5 -383z" />
    <glyph glyph-name="Ntilde" unicode="&#xd1;" horiz-adv-x="1561" 
d="M1311 -23h-99l-837 1197h-4l-33 -889q-3 -53 -5 -104t-9 -99l147 8l-4 -90h-375l2 68q137 0 144 161l55 1123l-137 -9l4 91h243l824 -1172h4l43 942q4 87 14 148l-147 -9l4 91h377l-4 -68q-102 -4 -130 -74q-13 -33 -15 -78t-5 -100zM665 1737q-89 0 -167 -117l-58 35
q64 141 180 185q36 14 82 13q46 0 86 -21q40 -20 74 -46t66 -47t73 -21q102 0 178 121l54 -29q-83 -208 -250 -208q-53 0 -93 21t-76 47t-70 46q-36 21 -79 21z" />
    <glyph glyph-name="Ograve" unicode="&#xd2;" horiz-adv-x="1613" 
d="M820 1467q146 1 244 -29t172 -82q144 -98 218 -260t74 -340q0 -292 -185 -525q-129 -163 -331 -229q-104 -34 -228 -35q-122 0 -220 29q-98 30 -172 80q-144 96 -218 256t-74 328q0 169 52 313t150 254q97 110 235 175q137 65 283 65zM832 1385q-162 0 -290 -106
q-116 -96 -181 -254t-65 -322q0 -243 112 -430q82 -137 222 -193q72 -29 161 -29t163 28q74 29 135 77q116 94 179 248q64 155 64 319q0 261 -126 451q-140 210 -374 211zM610 1836q0 20 14 40t51 20t83 -41l260 -241l-43 -58l-299 191q-66 42 -66 89z" />
    <glyph glyph-name="Oacute" unicode="&#xd3;" horiz-adv-x="1613" 
d="M820 1467q146 1 244 -29t172 -82q144 -98 218 -260t74 -340q0 -292 -185 -525q-129 -163 -331 -229q-104 -34 -228 -35q-122 0 -220 29q-98 30 -172 80q-144 96 -218 256t-74 328q0 169 52 313t150 254q97 110 235 175q137 65 283 65zM832 1385q-162 0 -290 -106
q-116 -96 -181 -254t-65 -322q0 -243 112 -430q82 -137 222 -193q72 -29 161 -29t163 28q74 29 135 77q116 94 179 248q64 155 64 319q0 261 -126 451q-140 210 -374 211zM1055 1896q37 0 51 -20t14 -40q0 -46 -66 -89l-299 -191l-43 58l260 241q46 41 83 41z" />
    <glyph glyph-name="Ocircumflex" unicode="&#xd4;" horiz-adv-x="1613" 
d="M820 1467q146 1 244 -29t172 -82q144 -98 218 -260t74 -340q0 -292 -185 -525q-129 -163 -331 -229q-104 -34 -228 -35q-122 0 -220 29q-98 30 -172 80q-144 96 -218 256t-74 328q0 169 52 313t150 254q97 110 235 175q137 65 283 65zM832 1385q-162 0 -290 -106
q-116 -96 -181 -254t-65 -322q0 -243 112 -430q82 -137 222 -193q72 -29 161 -29t163 28q74 29 135 77q116 94 179 248q64 155 64 319q0 261 -126 451q-140 210 -374 211zM883 1905h4l370 -289l-37 -57l-356 182h-4l-348 -178l-31 55z" />
    <glyph glyph-name="Otilde" unicode="&#xd5;" horiz-adv-x="1613" 
d="M820 1467q146 1 244 -29t172 -82q144 -98 218 -260t74 -340q0 -292 -185 -525q-129 -163 -331 -229q-104 -34 -228 -35q-122 0 -220 29q-98 30 -172 80q-144 96 -218 256t-74 328q0 169 52 313t150 254q97 110 235 175q137 65 283 65zM832 1385q-162 0 -290 -106
q-116 -96 -181 -254t-65 -322q0 -243 112 -430q82 -137 222 -193q72 -29 161 -29t163 28q74 29 135 77q116 94 179 248q64 155 64 319q0 261 -126 451q-140 210 -374 211zM704 1737q-89 0 -167 -117l-58 35q65 141 181 185q36 14 81 13q47 0 87 -21q40 -20 74 -46t65 -47
q32 -21 73 -21q102 0 178 121l54 -29q-83 -208 -250 -208q-53 0 -93 21q-39 21 -75 47t-72 46q-36 21 -78 21z" />
    <glyph glyph-name="Odieresis" unicode="&#xd6;" horiz-adv-x="1613" 
d="M820 1467q146 1 244 -29t172 -82q144 -98 218 -260t74 -340q0 -292 -185 -525q-129 -163 -331 -229q-104 -34 -228 -35q-122 0 -220 29q-98 30 -172 80q-144 96 -218 256t-74 328q0 169 52 313t150 254q97 110 235 175q137 65 283 65zM832 1385q-162 0 -290 -106
q-116 -96 -181 -254t-65 -322q0 -243 112 -430q82 -137 222 -193q72 -29 161 -29t163 28q74 29 135 77q116 94 179 248q64 155 64 319q0 261 -126 451q-140 210 -374 211zM1035 1593q-20 -1 -38 9t-31 26t-20 39q-7 22 -6 48q0 27 10 49t25 38t35 26t40 10t38 -10t30 -26
t18 -38t5 -49q-1 -26 -10 -48q-9 -23 -23 -39t-34 -26q-19 -10 -39 -9zM704 1593q-20 -1 -38 9t-31 26t-20 39q-7 22 -6 48q1 27 11 49t24 38t34 26t41 10t39 -10t29 -26q12 -16 18 -38t5 -49q-1 -26 -10 -48q-10 -23 -24 -39t-33 -26t-39 -9z" />
    <glyph glyph-name="multiply" unicode="&#xd7;" horiz-adv-x="1093" 
d="M75 279l383 358l-329 354l88 92l334 -359l397 370l69 -88l-387 -367l344 -369l-86 -94l-351 376l-384 -364z" />
    <glyph glyph-name="Oslash" unicode="&#xd8;" horiz-adv-x="1611" 
d="M532 133q112 -82 269 -82t310 123.5t186.5 296.5t33.5 273t-32 218t-95 214zM834 1385q-245 0 -392 -212t-147 -473q0 -204 57.5 -322t99.5 -168l670 1062q-119 113 -288 113zM756 -33q-150 0 -289 65l-122 -190l-90 56l119 189q-135 96 -205 253t-70 323t52.5 310
t149.5 254t235 175t321 65t335 -84l103 163l103 -69l-106 -164q175 -152 205 -317t30 -246t-20.5 -173.5t-61.5 -180t-103 -165.5t-144.5 -136.5t-187 -93t-254.5 -34.5z" />
    <glyph glyph-name="Ugrave" unicode="&#xd9;" horiz-adv-x="1524" 
d="M384 562q0 -478 397 -478q210 0 322 145q111 145 128 398l37 577q4 87 14 148l-147 -9l4 91h383l-2 -68q-105 -4 -134 -74q-14 -34 -16 -78q-2 -46 -6 -100l-28 -477q-28 -465 -325 -615q-107 -54 -259 -55q-297 0 -419 143t-122 463q-1 181 17 432q20 281 30 347
l-147 -6l4 88h455l-4 -68q-91 0 -127 -60q-22 -36 -25 -102q-30 -568 -30 -642zM522 1836q0 20 14 40t51 20t83 -41l260 -241l-43 -58l-299 191q-66 42 -66 89z" />
    <glyph glyph-name="Uacute" unicode="&#xda;" horiz-adv-x="1524" 
d="M384 562q0 -478 397 -478q210 0 322 145q111 145 128 398l37 577q4 87 14 148l-147 -9l4 91h383l-2 -68q-105 -4 -134 -74q-14 -34 -16 -78q-2 -46 -6 -100l-28 -477q-28 -465 -325 -615q-107 -54 -259 -55q-297 0 -419 143t-122 463q-1 181 17 432q20 281 30 347
l-147 -6l4 88h455l-4 -68q-91 0 -127 -60q-22 -36 -25 -102q-30 -568 -30 -642zM1092 1896q37 0 51 -20t14 -40q0 -46 -66 -89l-299 -191l-43 58l260 241q46 41 83 41z" />
    <glyph glyph-name="Ucircumflex" unicode="&#xdb;" horiz-adv-x="1524" 
d="M384 562q0 -478 397 -478q210 0 322 145q111 145 128 398l37 577q4 87 14 148l-147 -9l4 91h383l-2 -68q-105 -4 -134 -74q-14 -34 -16 -78q-2 -46 -6 -100l-28 -477q-28 -465 -325 -615q-107 -54 -259 -55q-297 0 -419 143t-122 463q-1 181 17 432q20 281 30 347
l-147 -6l4 88h455l-4 -68q-91 0 -127 -60q-22 -36 -25 -102q-30 -568 -30 -642zM877 1905h4l370 -289l-37 -57l-356 182h-4l-348 -178l-31 55z" />
    <glyph glyph-name="Udieresis" unicode="&#xdc;" horiz-adv-x="1524" 
d="M384 562q0 -478 397 -478q210 0 322 145q111 145 128 398l37 577q4 87 14 148l-147 -9l4 91h383l-2 -68q-105 -4 -134 -74q-14 -34 -16 -78q-2 -46 -6 -100l-28 -477q-28 -465 -325 -615q-107 -54 -259 -55q-297 0 -419 143t-122 463q-1 181 17 432q20 281 30 347
l-147 -6l4 88h455l-4 -68q-91 0 -127 -60q-22 -36 -25 -102q-30 -568 -30 -642zM1033 1593q-20 -1 -38 9t-31 26t-20 39q-7 22 -6 48q0 27 10 49t25 38t35 26t40 10t38 -10t30 -26t18 -38t5 -49q-1 -26 -10 -48q-9 -23 -23 -39t-34 -26q-19 -10 -39 -9zM702 1593
q-20 -1 -38 9t-31 26t-20 39q-7 22 -6 48q1 27 11 49t24 38t34 26t41 10t39 -10t29 -26q12 -16 18 -38t5 -49q-1 -26 -10 -48q-10 -23 -24 -39t-33 -26t-39 -9z" />
    <glyph glyph-name="Yacute" unicode="&#xdd;" horiz-adv-x="1312" 
d="M765 614q-22 -370 -23 -425t-12 -107l170 8l-4 -90h-473l4 68q101 4 131 76q14 34 16 78q2 45 5 97l12 234l-324 563q-87 145 -98 232l-127 -5l4 91h520l-4 -68q-133 0 -156 -58q-24 -58 35 -165q188 -327 267 -445h4q300 525 366 615q16 21 31 37l-162 -7l4 91h418
l-4 -68q-138 -8 -241 -150q-52 -73 -173 -281q-120 -208 -186 -321zM1009 1896q37 0 51 -20t14 -40q0 -46 -66 -89l-299 -191l-43 58l260 241q46 41 83 41z" />
    <glyph glyph-name="Thorn" unicode="&#xde;" horiz-adv-x="1182" 
d="M590 1104h-51t-86 -2l-37 -696h92q195 2 315 100.5t130 261.5q14 255 -149 295.5t-214 40.5zM611 1184q101 0 317.5 -51.5t216.5 -329.5q0 -179 -158 -328t-542 -149h-33l-5 -107q-3 -95 -13 -137l147 8l-4 -90h-453l5 68q103 4 125.5 58.5t27.5 192.5l47 885
q4 78 15 148l-148 -9l4 91h453l-4 -68q-125 -5 -137 -73t-15 -111q53 2 154 2z" />
    <glyph glyph-name="germandbls" unicode="&#xdf;" horiz-adv-x="1331" 
d="M409 1417.5q116 138.5 342 138.5t319 -95t76 -222t-138 -218t-147.5 -130t-26.5 -79t31.5 -75t79.5 -70.5t182.5 -129.5t134.5 -261q0 -130 -95 -214.5t-238 -84.5t-236.5 58.5t-93.5 160.5q0 45 25.5 73t65.5 28t60.5 -27t20.5 -61t-18 -62q16 -45 60.5 -69.5
t100.5 -24.5q180 0 180 195q0 95 -84 162t-153 119t-120 111.5t-47 124.5q5 65 27.5 104.5t54.5 71.5t121.5 103t100.5 213q7 93 -53 162.5t-183 69.5q-205 0 -268.5 -144t-79 -269.5t-23 -212t-14 -182t-14.5 -193.5t-15 -192t-17.5 -184.5t-25 -175.5t-49 -201.5
t-121 -204t-238.5 -85.5q-151 2 -151 106q0 52 31 69.5t61 16.5t50.5 -27.5t20.5 -68.5q24 -16 67 -16t75 34.5t53.5 98t34 152.5t21 197.5t28 411.5t48.5 520l-184 -3l10 88h188q47 255 163 393.5z" />
    <glyph glyph-name="agrave" unicode="&#xe0;" horiz-adv-x="1123" 
d="M613 973q-179 1 -277 -189q-88 -170 -89 -416q0 -301 133 -301q90 0 184 147q137 216 188 542q16 101 17 192q-60 25 -156 25zM948 1012q-91 -674 -91 -803t56 -129q40 0 82 49q41 49 69 149l58 -12q-19 -98 -66 -162q-46 -64 -93 -96t-108 -31q-151 0 -151 185
q0 94 37 274h-6q-145 -459 -393 -459q-124 0 -196 86q-71 86 -71 251q0 324 156 528q156 205 442 205q137 0 275 -35zM428 1491q0 71 60 71q48 0 87 -65l159 -270l-49 -41l-211 219q-46 50 -46 86z" />
    <glyph glyph-name="aacute" unicode="&#xe1;" horiz-adv-x="1123" 
d="M613 973q-179 1 -277 -189q-88 -170 -89 -416q0 -301 133 -301q90 0 184 147q137 216 188 542q16 101 17 192q-60 25 -156 25zM948 1012q-91 -674 -91 -803t56 -129q40 0 82 49q41 49 69 149l58 -12q-19 -98 -66 -162q-46 -64 -93 -96t-108 -31q-151 0 -151 185
q0 94 37 274h-6q-145 -459 -393 -459q-124 0 -196 86q-71 86 -71 251q0 324 156 528q156 205 442 205q137 0 275 -35zM902 1496q0 -41 -46 -91l-211 -219l-49 41l159 270q39 65 85 65q62 0 62 -66z" />
    <glyph glyph-name="acircumflex" unicode="&#xe2;" horiz-adv-x="1123" 
d="M613 973q-179 1 -277 -189q-88 -170 -89 -416q0 -301 133 -301q90 0 184 147q137 216 188 542q16 101 17 192q-60 25 -156 25zM948 1012q-91 -674 -91 -803t56 -129q40 0 82 49q41 49 69 149l58 -12q-19 -98 -66 -162q-46 -64 -93 -96t-108 -31q-151 0 -151 185
q0 94 37 274h-6q-145 -459 -393 -459q-124 0 -196 86q-71 86 -71 251q0 324 156 528q156 205 442 205q137 0 275 -35zM659 1589h4l287 -329l-51 -54l-256 232h-4l-279 -224l-45 54z" />
    <glyph glyph-name="atilde" unicode="&#xe3;" horiz-adv-x="1123" 
d="M613 973q-179 1 -277 -189q-88 -170 -89 -416q0 -301 133 -301q90 0 184 147q137 216 188 542q16 101 17 192q-60 25 -156 25zM948 1012q-91 -674 -91 -803t56 -129q40 0 82 49q41 49 69 149l58 -12q-19 -98 -66 -162q-46 -64 -93 -96t-108 -31q-151 0 -151 185
q0 94 37 274h-6q-145 -459 -393 -459q-124 0 -196 86q-71 86 -71 251q0 324 156 528q156 205 442 205q137 0 275 -35zM1031 1450q-69 -186 -221 -186q-56 0 -138 54q-30 20 -59 37t-65 17t-77 -24q-42 -24 -73 -68l-51 27q29 72 96 121q66 49 120 49q54 -1 88 -17
q35 -16 63 -36t56 -38q28 -16 63 -16q80 0 149 105z" />
    <glyph glyph-name="adieresis" unicode="&#xe4;" horiz-adv-x="1123" 
d="M613 973q-179 1 -277 -189q-88 -170 -89 -416q0 -301 133 -301q90 0 184 147q137 216 188 542q16 101 17 192q-60 25 -156 25zM948 1012q-91 -674 -91 -803t56 -129q40 0 82 49q41 49 69 149l58 -12q-19 -98 -66 -162q-46 -64 -93 -96t-108 -31q-151 0 -151 185
q0 94 37 274h-6q-145 -459 -393 -459q-124 0 -196 86q-71 86 -71 251q0 324 156 528q156 205 442 205q137 0 275 -35zM819 1261q-38 0 -64 32q-25 32 -25 67q1 58 33 92q31 33 60 33q49 0 73 -33q41 -55 13 -123t-90 -68zM518 1261q-38 0 -64 32q-24 32 -24 67q1 58 32 92
q31 33 60 33q49 0 73 -33q41 -55 13 -123t-90 -68z" />
    <glyph glyph-name="aring" unicode="&#xe5;" horiz-adv-x="1123" 
d="M613 973q-179 1 -277 -189q-88 -170 -89 -416q0 -301 133 -301q90 0 184 147q137 216 188 542q16 101 17 192q-60 25 -156 25zM948 1012q-91 -674 -91 -803t56 -129q40 0 82 49q41 49 69 149l58 -12q-19 -98 -66 -162q-46 -64 -93 -96t-108 -31q-151 0 -151 185
q0 94 37 274h-6q-145 -459 -393 -459q-124 0 -196 86q-71 86 -71 251q0 324 156 528q156 205 442 205q137 0 275 -35zM814 1511q56 -48 55 -137t-66 -148t-144 -59q-130 -1 -177 103q-16 36 -16 82t20 85q19 38 49 65q63 57 143 57t136 -48zM570 1344q0 -44 27 -81t59 -37
q52 1 81 40q28 39 28 99q0 59 -24 97t-57 38q-34 0 -52 -12t-32 -30t-22 -44t-8 -70z" />
    <glyph glyph-name="ae" unicode="&#xe6;" horiz-adv-x="1529" 
d="M1243 820q0 160 -146 158q-116 -2 -191.5 -121.5t-94.5 -311.5q291 29 361.5 124t70.5 151zM650 380v42q0 42 1 54q-428 -9 -428 -253q0 -72 81.5 -120t191.5 8.5t173 121.5q-19 87 -19 147zM288 784q0 -36 -23 -59.5t-59 -23.5t-58.5 23.5t-22.5 63.5t28.5 87t113 109.5
t264.5 62.5q179 0 249 -186h4q123 186 338 186t250 -90.5t35 -125.5t-10.5 -69.5t-88.5 -139.5t-498 -150q0 -392 257 -392q135 0 213 97.5t108 149.5l66 -38q-163 -312 -426 -312q-178 0 -241 69t-91 120q-171 -189 -374 -189q-202 0 -235.5 85.5t-33.5 139.5t23 101.5
t82 102.5t188 95.5t271 40.5l40 -1l9 185q0 118 -28 164.5t-64 66.5t-84 20q-87 0 -145.5 -37.5t-74.5 -95.5q18 -24 18 -60z" />
    <glyph glyph-name="ccedilla" unicode="&#xe7;" horiz-adv-x="971" 
d="M260 479q0 -401 250 -401q143 0 213 91.5t100 165.5l72 -34q-142 -319 -413 -324l-48 -135q60 39 132 39t106.5 -35.5t34.5 -83.5t-20.5 -81.5t-88 -86.5t-297.5 -86l-8 64q179 31 220.5 78.5t41.5 77.5q0 63 -68 63q-52 0 -96 -31l-69 35l61 190q-220 38 -261.5 189.5
t-41.5 235.5t12.5 155.5t55 182.5t152.5 205t256 94q145 0 233 -69t88 -171q0 -48 -23.5 -74.5t-57.5 -26.5q-92 0 -93 94q0 39 26 66q-11 57 -56 83t-105 26t-106 -22t-95 -77t-78 -169t-29 -228z" />
    <glyph glyph-name="egrave" unicode="&#xe8;" horiz-adv-x="976" 
d="M532 977q-54 1 -106 -37q-143 -104 -164 -401q288 39 396 175q38 48 37 94q0 46 -9 74t-27 50q-17 21 -45 33t-82 12zM897 289q-167 -312 -417 -312q-118 0 -190 32q-210 95 -210 411q0 254 123 432q83 120 221 170q70 24 139 25q69 -1 121 -13t91 -40q41 -28 65 -72
t24 -106t-27 -108t-73 -81q-159 -124 -504 -162q1 -193 57 -289t189 -96t250 136q40 46 74 111zM351 1491q0 71 60 71q48 0 87 -65l159 -270l-49 -41l-211 219q-46 50 -46 86z" />
    <glyph glyph-name="eacute" unicode="&#xe9;" horiz-adv-x="976" 
d="M532 977q-54 1 -106 -37q-143 -104 -164 -401q288 39 396 175q38 48 37 94q0 46 -9 74t-27 50q-17 21 -45 33t-82 12zM897 289q-167 -312 -417 -312q-118 0 -190 32q-210 95 -210 411q0 254 123 432q83 120 221 170q70 24 139 25q69 -1 121 -13t91 -40q41 -28 65 -72
t24 -106t-27 -108t-73 -81q-159 -124 -504 -162q1 -193 57 -289t189 -96t250 136q40 46 74 111zM798 1496q0 -41 -46 -91l-211 -219l-49 41l159 270q39 65 85 65q62 0 62 -66z" />
    <glyph glyph-name="ecircumflex" unicode="&#xea;" horiz-adv-x="976" 
d="M532 977q-54 1 -106 -37q-143 -104 -164 -401q288 39 396 175q38 48 37 94q0 46 -9 74t-27 50q-17 21 -45 33t-82 12zM897 289q-167 -312 -417 -312q-118 0 -190 32q-210 95 -210 411q0 254 123 432q83 120 221 170q70 24 139 25q69 -1 121 -13t91 -40q41 -28 65 -72
t24 -106t-27 -108t-73 -81q-159 -124 -504 -162q1 -193 57 -289t189 -96t250 136q40 46 74 111zM586 1589h4l287 -329l-51 -54l-256 232h-4l-279 -224l-45 54z" />
    <glyph glyph-name="edieresis" unicode="&#xeb;" horiz-adv-x="976" 
d="M532 977q-54 1 -106 -37q-143 -104 -164 -401q288 39 396 175q38 48 37 94q0 46 -9 74t-27 50q-17 21 -45 33t-82 12zM897 289q-167 -312 -417 -312q-118 0 -190 32q-210 95 -210 411q0 254 123 432q83 120 221 170q70 24 139 25q69 -1 121 -13t91 -40q41 -28 65 -72
t24 -106t-27 -108t-73 -81q-159 -124 -504 -162q1 -193 57 -289t189 -96t250 136q40 46 74 111zM726 1261q-38 0 -64 32q-24 32 -24 67q1 58 32 92q31 33 60 33q49 0 73 -33q41 -55 13 -123t-90 -68zM425 1261q-38 0 -64 32q-25 32 -25 67q1 58 33 92q31 33 60 33
q49 0 73 -33q41 -55 13 -123t-90 -68z" />
    <glyph glyph-name="igrave" unicode="&#xec;" horiz-adv-x="663" 
d="M279 815q0 129 -50 129q-45 0 -87 -48t-70 -150l-57 12q34 176 151 258q46 32 98 31q94 0 137 -57q44 -57 44 -138q0 -80 -12 -160t-27 -168t-27 -180t-12 -178t63 -86t116 106q19 38 34 92l58 -12q-38 -183 -154 -260q-44 -29 -100 -29q-185 0 -185 193q-1 120 27 273
q52 292 53 372zM122 1491q0 71 60 71q48 0 87 -65l159 -270l-49 -41l-211 219q-46 50 -46 86z" />
    <glyph glyph-name="iacute" unicode="&#xed;" horiz-adv-x="663" 
d="M279 815q0 129 -50 129q-45 0 -87 -48t-70 -150l-57 12q34 176 151 258q46 32 98 31q94 0 137 -57q44 -57 44 -138q0 -80 -12 -160t-27 -168t-27 -180t-12 -178t63 -86t116 106q19 38 34 92l58 -12q-38 -183 -154 -260q-44 -29 -100 -29q-185 0 -185 193q-1 120 27 273
q52 292 53 372zM530 1562q62 0 62 -66q0 -41 -46 -91l-211 -219l-49 41l159 270q39 65 85 65z" />
    <glyph glyph-name="icircumflex" unicode="&#xee;" horiz-adv-x="663" 
d="M279 815q0 129 -50 129q-45 0 -87 -48t-70 -150l-57 12q34 176 115.5 232.5t133.5 56.5q94 0 137.5 -57t43.5 -138q0 -80 -12 -159.5t-27 -168t-27 -180.5t-12 -178t63 -86t99 72t51 126l58 -12q-38 -183 -117.5 -236t-136.5 -53q-185 0 -185 193q0 120 40 342.5
t40 302.5zM347 1589h4l258 -329l-53 -54l-225 232h-5l-258 -224l-45 54z" />
    <glyph glyph-name="idieresis" unicode="&#xef;" horiz-adv-x="663" 
d="M279 815q0 129 -50 129q-45 0 -87 -48t-70 -150l-57 12q34 176 151 258q46 32 98 31q94 0 137 -57q44 -57 44 -138q0 -80 -12 -160t-27 -168t-27 -180t-12 -178t63 -86t116 106q19 38 34 92l58 -12q-38 -183 -154 -260q-44 -29 -100 -29q-185 0 -185 193q-1 120 27 273
q52 292 53 372zM510 1261q-38 0 -64 32q-24 32 -24 67q1 58 32 92q31 33 60 33q49 0 73 -33q41 -55 13 -123t-90 -68zM209 1261q-38 0 -64 32q-25 32 -25 67q1 58 33 92q31 33 60 33q49 0 73 -33q41 -55 13 -123t-90 -68z" />
    <glyph glyph-name="eth" unicode="&#xf0;" horiz-adv-x="1057" 
d="M540 948q-46 0 -96 -32t-118.5 -136t-68.5 -310t58.5 -310.5t159.5 -104.5t197.5 153t96.5 513l-1 83q-72 144 -228 144zM265 1484h-22v69q37 3 72 3q132 0 243 -48l119 134l59 -53l-102 -122q301 -196 301 -754q0 -505 -181.5 -620.5t-326.5 -115.5t-245.5 119.5
t-100.5 331.5q0 268 131 435t316 167q150 0 233 -101q-30 332 -192 461l-134 -161l-69 65l128 143q-96 47 -229 47z" />
    <glyph glyph-name="ntilde" unicode="&#xf1;" horiz-adv-x="1259" 
d="M281 1047q153 0 153 -214q0 -89 -14 -159t-18 -94h6q140 378 304 446q50 20 106 21q111 0 164 -75t53 -175q-1 -145 -31 -361t-30 -248q0 -61 9 -80q23 -50 88 -15q66 34 107 185l58 -13q-19 -98 -66 -162q-46 -63 -92 -95t-102 -31q-100 0 -136 49t-36 127q0 83 32 323
t31 304q0 93 -22 132t-71 39q-50 -1 -98 -39t-94 -102q-91 -130 -153 -331t-62 -370q0 -57 4 -109h-172q-2 22 -2 40t2 49q3 31 7 79t12 117q8 70 18 164t18 150q6 56 10 94t7 62q6 48 6 97q0 92 -55 92q-63 0 -116 -106q-19 -38 -34 -92l-57 12q19 98 66 162t93 96t107 31z
M1053 1450q-69 -186 -221 -186q-56 0 -138 54q-30 20 -59 37t-65 17t-77 -24q-42 -24 -73 -68l-51 27q29 72 96 121q66 49 120 49q54 -1 88 -17q35 -16 63 -36t56 -38q28 -16 63 -16q80 0 149 105z" />
    <glyph glyph-name="ograve" unicode="&#xf2;" horiz-adv-x="1068" 
d="M481 -23q-202 0 -302 128t-100 331q0 258 138 434q138 177 368 177q170 0 279 -119q110 -119 110 -330q0 -260 -132 -434q-64 -86 -158 -136t-203 -51zM540 971q-60 -1 -114 -39t-91 -104q-76 -137 -76 -346q1 -328 155 -408q36 -18 84 -19q50 0 92 22q42 23 76 59
q62 69 101 203t23 315q-22 238 -154 300q-37 18 -96 17zM369 1491q0 71 60 71q48 0 87 -65l159 -270l-49 -41l-211 219q-46 50 -46 86z" />
    <glyph glyph-name="oacute" unicode="&#xf3;" horiz-adv-x="1068" 
d="M481 -23q-202 0 -302 128t-100 331q0 258 138 434q138 177 368 177q170 0 279 -119q110 -119 110 -330q0 -260 -132 -434q-64 -86 -158 -136t-203 -51zM540 971q-60 -1 -114 -39t-91 -104q-76 -137 -76 -346q1 -328 155 -408q36 -18 84 -19q50 0 92 22q42 23 76 59
q62 69 101 203t23 315q-22 238 -154 300q-37 18 -96 17zM758 1562q62 0 62 -66q0 -41 -46 -91l-211 -219l-49 41l159 270q39 65 85 65z" />
    <glyph glyph-name="ocircumflex" unicode="&#xf4;" horiz-adv-x="1068" 
d="M481 -23q-202 0 -302 128t-100 331q0 258 138 434q138 177 368 177q170 0 279 -119q110 -119 110 -330q0 -260 -132 -434q-64 -86 -158 -136t-203 -51zM540 971q-60 -1 -114 -39t-91 -104q-76 -137 -76 -346q1 -328 155 -408q36 -18 84 -19q50 0 92 22q42 23 76 59
q62 69 101 203t23 315q-22 238 -154 300q-37 18 -96 17zM593 1589h4l287 -329l-51 -54l-256 232h-4l-279 -224l-45 54z" />
    <glyph glyph-name="otilde" unicode="&#xf5;" horiz-adv-x="1068" 
d="M481 -23q-202 0 -302 128t-100 331q0 258 138 434q138 177 368 177q170 0 279 -119q110 -119 110 -330q0 -260 -132 -434q-64 -86 -158 -136t-203 -51zM540 971q-60 -1 -114 -39t-91 -104q-76 -137 -76 -346q1 -328 155 -408q36 -18 84 -19q50 0 92 22q42 23 76 59
q62 69 101 203t23 315q-22 238 -154 300q-37 18 -96 17zM923 1450q-69 -186 -221 -186q-56 0 -138 54q-30 20 -59 37t-65 17t-77 -24q-42 -24 -73 -68l-51 27q29 72 96 121q66 49 120 49q54 -1 88 -17q35 -16 63 -36t56 -38q28 -16 63 -16q80 0 149 105z" />
    <glyph glyph-name="odieresis" unicode="&#xf6;" horiz-adv-x="1068" 
d="M481 -23q-202 0 -302 128t-100 331q0 258 138 434q138 177 368 177q170 0 279 -119q110 -119 110 -330q0 -260 -132 -434q-64 -86 -158 -136t-203 -51zM540 971q-60 -1 -114 -39t-91 -104q-76 -137 -76 -346q1 -328 155 -408q36 -18 84 -19q50 0 92 22q42 23 76 59
q62 69 101 203t23 315q-22 238 -154 300q-37 18 -96 17zM712 1261q-38 0 -64 32q-24 32 -24 67q1 58 32 92q31 33 60 33q49 0 73 -33q41 -55 13 -123t-90 -68zM411 1261q-38 0 -64 32q-25 32 -25 67q1 58 33 92q31 33 60 33q49 0 73 -33q41 -55 13 -123t-90 -68z" />
    <glyph glyph-name="divide" unicode="&#xf7;" horiz-adv-x="550" 
d="M197.5 834q-32.5 36 -32.5 75q0 67 38.5 107t87.5 40t78 -35t29 -87v-7q-2 -55 -39 -92t-83 -37t-78.5 36zM177.5 126q-32.5 36 -32.5 75q0 67 38.5 107t87.5 40t78 -35t29 -87v-7q-2 -55 -39 -92t-83 -37t-78.5 36z" />
    <glyph glyph-name="oslash" unicode="&#xf8;" horiz-adv-x="1068" 
d="M340 139q57 -84 179 -84t196.5 151t76.5 308q2 158 -21 247zM727 869q-64 102 -186 102t-200.5 -132.5t-82.5 -364.5q0 -140 37 -245zM974 598q0 -260 -136 -440.5t-366 -180.5q-122 0 -208 53l-130 -188l-65 52l128 190q-118 124 -118 367t138.5 419.5t367.5 176.5
q123 0 218 -65l114 169l84 -59l-124 -179q97 -120 97 -315z" />
    <glyph glyph-name="ugrave" unicode="&#xf9;" horiz-adv-x="1215" 
d="M222 944q-97 0 -152 -198l-57 12q19 99 63 163q44 63 90 95t107 31q166 0 166 -199q0 -78 -21 -228q-22 -149 -34 -247t-12 -143q0 -75 21 -116q21 -40 72 -40q50 0 97 38t90 104q86 130 144 328q58 199 59 371q0 57 -4 109h172q2 -22 2 -40q1 -87 -31 -354
q-32 -266 -36 -304t-7 -61q-6 -46 -6 -93q0 -90 55 -90q63 0 116 104q19 38 34 92l57 -12q-19 -97 -65 -162q-46 -64 -92 -96t-99 -31q-168 0 -168 182q0 85 37 277h-6q-140 -378 -289 -440q-47 -20 -103 -19q-110 0 -164 75t-54 176q0 148 32 359t33 245q0 63 -11 88
q-11 24 -36 24zM428 1491q0 71 60 71q48 0 87 -65l159 -270l-49 -41l-211 219q-46 50 -46 86z" />
    <glyph glyph-name="uacute" unicode="&#xfa;" horiz-adv-x="1215" 
d="M222 944q-97 0 -152 -198l-57 12q19 99 63 163q44 63 90 95t107 31q166 0 166 -199q0 -78 -21 -228q-22 -149 -34 -247t-12 -143q0 -75 21 -116q21 -40 72 -40q50 0 97 38t90 104q86 130 144 328q58 199 59 371q0 57 -4 109h172q2 -22 2 -40q1 -87 -31 -354
q-32 -266 -36 -304t-7 -61q-6 -46 -6 -93q0 -90 55 -90q63 0 116 104q19 38 34 92l57 -12q-19 -97 -65 -162q-46 -64 -92 -96t-99 -31q-168 0 -168 182q0 85 37 277h-6q-140 -378 -289 -440q-47 -20 -103 -19q-110 0 -164 75t-54 176q0 148 32 359t33 245q0 63 -11 88
q-11 24 -36 24zM856 1496q0 -41 -46 -91l-211 -219l-49 41l159 270q39 65 85 65q62 0 62 -66z" />
    <glyph glyph-name="ucircumflex" unicode="&#xfb;" horiz-adv-x="1215" 
d="M222 944q-97 0 -152 -198l-57 12q19 99 63 163q44 63 90 95t107 31q166 0 166 -199q0 -78 -21 -228q-22 -149 -34 -247t-12 -143q0 -75 21 -116q21 -40 72 -40q50 0 97 38t90 104q86 130 144 328q58 199 59 371q0 57 -4 109h172q2 -22 2 -40q1 -87 -31 -354
q-32 -266 -36 -304t-7 -61q-6 -46 -6 -93q0 -90 55 -90q63 0 116 104q19 38 34 92l57 -12q-19 -97 -65 -162q-46 -64 -92 -96t-99 -31q-168 0 -168 182q0 85 37 277h-6q-140 -378 -289 -440q-47 -20 -103 -19q-110 0 -164 75t-54 176q0 148 32 359t33 245q0 63 -11 88
q-11 24 -36 24zM679 1589h4l287 -329l-51 -54l-256 232h-4l-279 -224l-45 54z" />
    <glyph glyph-name="udieresis" unicode="&#xfc;" horiz-adv-x="1215" 
d="M222 944q-97 0 -152 -198l-57 12q19 99 63 163q44 63 90 95t107 31q166 0 166 -199q0 -78 -21 -228q-22 -149 -34 -247t-12 -143q0 -75 21 -116q21 -40 72 -40q50 0 97 38t90 104q86 130 144 328q58 199 59 371q0 57 -4 109h172q2 -22 2 -40q1 -87 -31 -354
q-32 -266 -36 -304t-7 -61q-6 -46 -6 -93q0 -90 55 -90q63 0 116 104q19 38 34 92l57 -12q-19 -97 -65 -162q-46 -64 -92 -96t-99 -31q-168 0 -168 182q0 85 37 277h-6q-140 -378 -289 -440q-47 -20 -103 -19q-110 0 -164 75t-54 176q0 148 32 359t33 245q0 63 -11 88
q-11 24 -36 24zM876 1452q41 -55 13 -123t-90 -68q-38 0 -64 32q-25 32 -25 67q1 58 33 92q31 33 70 33t63 -33zM498 1261q-38 0 -64 32q-24 32 -24 67q1 58 32 92q31 33 60 33q49 0 73 -33q41 -55 13 -123t-90 -68z" />
    <glyph glyph-name="yacute" unicode="&#xfd;" horiz-adv-x="1053" 
d="M74 -332q28 0 51 -26t23 -73v-8q26 -13 54 -13t58 17q32 17 62 44q83 73 184 238q-87 569 -249 961q-41 106 -95 106q-34 0 -56 -44t-22 -92q0 -50 3 -78l-66 -7q-3 27 -3 69q0 112 40 190q48 96 149 95q130 0 203 -162q72 -161 146 -491q16 -74 35 -153q18 -78 30 -202
h4q157 275 213 529q20 92 21 185q0 93 -31 136q-19 -13 -53 -13q-35 0 -57 24t-22 52q0 46 28 70q28 25 71 25q83 0 121 -76q39 -76 39 -182q0 -329 -249 -781q-173 -315 -307 -439t-267 -124q-72 3 -114 39t-42 84t20 68t36 26q14 6 42 6zM833 1496q0 -41 -46 -91
l-211 -219l-49 41l159 270q39 65 85 65q62 0 62 -66z" />
    <glyph glyph-name="thorn" unicode="&#xfe;" horiz-adv-x="1048" 
d="M365 -522h-387v61q77 0 95.5 63t29.5 213q10 150 18.5 274t16.5 238.5t16 224.5t21 295.5t25 325.5q11 140 13.5 174.5t9.5 69.5l-149 -8l9 82q173 0 210.5 22t49.5 33h59q-19 -117 -22 -142l-24 -204q-15 -136 -28.5 -280t-29.5 -308l6 -2q109 399 236.5 418t178.5 19
t143.5 -59.5t92.5 -308.5q0 -318 -140 -510t-427 -192q-67 0 -123 8l-12 -259q-3 -42 -5 -88.5t-12 -81.5l129 6v-84zM640 951q-92 -4 -200 -179t-140.5 -383t-34.5 -293q47 -46 139 -46t146.5 26t141.5 123t87 424q0 328 -139 328z" />
    <glyph glyph-name="ydieresis" unicode="&#xff;" horiz-adv-x="1053" 
d="M74 -332q28 0 51 -26t23 -73v-8q26 -13 54 -13t58 17q32 17 62 44q83 73 184 238q-87 569 -249 961q-41 106 -95 106q-34 0 -56 -44t-22 -92q0 -50 3 -78l-66 -7q-3 27 -3 69q0 112 40 190q48 96 149 95q130 0 203 -162q72 -161 146 -491q16 -74 35 -153q18 -78 30 -202
h4q157 275 213 529q20 92 21 185q0 93 -31 136q-19 -13 -53 -13q-35 0 -57 24t-22 52q0 46 28 70q28 25 71 25q83 0 121 -76q39 -76 39 -182q0 -329 -249 -781q-173 -315 -307 -439t-267 -124q-72 3 -114 39t-42 84t20 68t36 26q14 6 42 6zM765 1261q-38 0 -64 32
q-25 32 -25 67q1 58 33 92q31 33 60 33q49 0 73 -33q41 -55 13 -123t-90 -68zM464 1261q-38 0 -64 32q-24 32 -24 67q1 58 32 92q31 33 60 33q49 0 73 -33q41 -55 13 -123t-90 -68z" />
    <glyph glyph-name="dotlessi" unicode="&#x131;" horiz-adv-x="663" 
d="M279 815q0 129 -50 129q-45 0 -87 -48t-70 -150l-57 12q34 176 115.5 232.5t133.5 56.5q94 0 137.5 -57t43.5 -138q0 -80 -12 -159.5t-27 -168t-27 -180.5t-12 -178t63 -86t99 72t51 126l58 -12q-38 -183 -117.5 -236t-136.5 -53q-185 0 -185 193q0 120 40 342.5
t40 302.5z" />
    <glyph glyph-name="Lslash" unicode="&#x141;" horiz-adv-x="1181" 
d="M159 1434h453l-4 -68q-98 -4 -129 -74q-20 -45 -25 -178l-15 -283l210 154l-7 -111l-209 -154l-26 -484q-6 -120 -14 -160l383 6q198 2 255 186q20 64 25 156h70l-35 -424h-1008l5 68q102 4 130 73q14 33 17 79t6 99l15 271l-167 -123l7 115l166 121l28 501q5 103 15 148
l-146 -9v91z" />
    <glyph glyph-name="lslash" unicode="&#x142;" horiz-adv-x="585" 
d="M167 23q-38 46 -38 138t30 422l-162 -114l6 115l167 116q49 488 66 577q16 89 18 101t4 20t3 19l-146 -8l9 82q173 0 231 34q17 10 29 21h59q-6 -38 -14 -84q-46 -270 -85 -642l190 132l-7 -110l-195 -137q-36 -351 -36 -460t10 -137q10 -29 47 -29q61 0 114 106
q19 38 34 93l59 -13q-19 -98 -65 -161q-92 -127 -191 -127t-137 46z" />
    <glyph glyph-name="OE" unicode="&#x152;" horiz-adv-x="2073" 
d="M862 1381q-237 0 -397 -183.5t-173 -485.5t124 -475t399 -173q103 0 222 32l65 1237q-119 48 -240 48zM734 -33q-141 0 -265 53t-254.5 199t-114.5 457t170.5 500.5t336 249.5t308.5 40t193 -32h833l-8 -359h-67q11 243 -97 265.5t-166 21.5l-176 -4q-107 -4 -134 -54.5
t-34 -189.5l-18 -330h152q141 0 179 24t53.5 62.5t18.5 106.5h68l-22 -447h-68q6 125 -41 153t-165 28t-179 -9l-25 -454q-4 -107 -14 -160l393 -12q291 -9 309 323h70l-33 -399h-905q-157 -33 -298 -33z" />
    <glyph glyph-name="oe" unicode="&#x153;" horiz-adv-x="1633" 
d="M1348 844q0 60 -39 96.5t-102 36.5h-34q-34 0 -85 -40t-107 -131.5t-66 -261.5q338 48 385.5 144t47.5 156zM529 971q-135 0 -204 -138t-69 -358q0 -279 77 -348.5t147 -69.5q134 0 202 130.5t72 320.5l1 60q0 403 -226 403zM1558 289q-168 -312 -417 -312
q-250 0 -338 205h-4q-130 -205 -368 -205q-78 0 -213.5 68.5t-135.5 390.5q0 263 129 437t356 174q102 -2 174 -57.5t107 -158.5h6q82 137 191 176.5t166 39.5q300 0 300 -224q0 -199 -217.5 -266.5t-377.5 -82.5q-1 -9 -1 -12v-70q0 -56 22 -125t56.5 -111t77.5 -59.5
t108 -17.5t157.5 66.5t153.5 181.5z" />
    <glyph glyph-name="Scaron" unicode="&#x160;" horiz-adv-x="1161" 
d="M884 323q0 176 -233 292q-66 33 -135 65q-180 84 -253 150q-115 103 -115 245q0 141 85 249q113 142 334 143q221 0 365 -105l-3 87h104l-22 -449h-74q-2 162 -90 274q-87 111 -256 111q-127 0 -204 -75q-76 -75 -76 -182q0 -159 236 -272q67 -32 137 -64
q178 -83 256 -155q116 -107 117 -274q0 -168 -134 -282t-363 -114q-230 0 -362 88l6 -71h-107l11 436h80q2 -183 106 -275t256 -92t243 72t91 198zM609 1528h-4l-375 293l39 61l342 -196h4l359 200l32 -53z" />
    <glyph glyph-name="scaron" unicode="&#x161;" horiz-adv-x="876" 
d="M233 209q0 -34 -18 -62q24 -65 116 -87q27 -6 55 -7q111 1 166 51t55 144q-1 52 -37 94t-92 78q-56 38 -119 74t-119 76q-128 94 -129 205q0 111 99 191q99 81 237 81t229 -56q92 -56 92 -145q0 -45 -24 -70t-62 -25t-60 25t-22 59t19 63q-11 34 -51 58t-92 23
q-90 0 -147 -46q-58 -46 -58 -116q-1 -91 159 -183q127 -74 179 -109q166 -113 166 -246t-108 -218q-108 -84 -258 -84q-151 0 -250 59q-98 59 -98 160q-1 45 25 73t66 28t60 -27q21 -27 21 -61zM470 1188h-4l-287 330l47 51l250 -234h4l287 242l45 -53z" />
    <glyph glyph-name="Ydieresis" unicode="&#x178;" horiz-adv-x="1312" 
d="M765 614q-22 -370 -23 -425t-12 -107l170 8l-4 -90h-473l4 68q101 4 131 76q14 34 16 78q2 45 5 97l12 234l-324 563q-87 145 -98 232l-127 -5l4 91h520l-4 -68q-133 0 -156 -58q-24 -58 35 -165q188 -327 267 -445h4q300 525 366 615q16 21 31 37l-162 -7l4 91h418
l-4 -68q-138 -8 -241 -150q-52 -73 -173 -281q-120 -208 -186 -321zM911 1593q-20 -1 -38 9t-31 26t-20 39q-7 22 -6 48q0 27 10 49t25 38t35 26t40 10t38 -10t30 -26t18 -38t5 -49q-1 -26 -10 -48q-9 -23 -23 -39t-34 -26q-19 -10 -39 -9zM580 1593q-20 -1 -38 9t-31 26
t-20 39q-7 22 -6 48q1 27 11 49t24 38t34 26t41 10t39 -10t29 -26q12 -16 18 -38t5 -49q-1 -26 -10 -48q-10 -23 -24 -39t-33 -26t-39 -9z" />
    <glyph glyph-name="Zcaron" unicode="&#x17d;" horiz-adv-x="1254" 
d="M65 94q61 81 140 184t250 333t300 419q129 190 163 236t76 92l-528 -8q-245 -12 -260 -340h-70l35 424h1016l-4 -72l-803 -1116q-69 -95 -100 -125t-48 -45l506 8q224 3 304 187q28 63 32 149h70l-35 -420h-1051zM654 1528h-4l-375 293l39 61l342 -196h4l359 200l32 -53z
" />
    <glyph glyph-name="zcaron" unicode="&#x17e;" horiz-adv-x="965" 
d="M865 204q0 -105 -62 -166t-138 -61q-77 0 -197 37t-180 37q-107 0 -187 -74l-65 51q260 387 686 904h-4q-79 -84 -172 -84q-47 0 -105 20q-57 20 -89 30t-60 10q-54 0 -87 -28q-34 -28 -34 -79q0 -52 14 -91l-55 -18q-27 76 -27 130q0 101 65 163t143 62q78 -1 141 -23
t100 -32t84 -10q106 0 184 66l61 -57q-35 -44 -141 -175q-418 -516 -574 -729h4q94 106 234 106q48 1 114 -23t100 -35t69 -11q113 0 113 111q0 34 -15 78l55 18q25 -70 25 -127zM486 1188h-4l-287 330l47 51l250 -234h4l287 242l45 -53z" />
    <glyph glyph-name="florin" unicode="&#x192;" horiz-adv-x="665" 
d="M587 1479q-89 0 -137 -127q-39 -103 -54 -328h290l-6 -80l-290 -4q-6 -106 -12 -222t-17 -237q-11 -122 -21 -247t-26 -240q-38 -263 -118 -390q-101 -159 -292 -159q-160 0 -160 106q0 51 44 75q16 8 46 9q30 0 52 -26q21 -26 21 -68q21 -16 65 -16q44 1 76 35t53 98
t33 152q12 90 22 198q9 108 17 233t19 247t18 234q7 110 19 216l-179 -2l10 88h180q36 254 119 378q103 154 298 154q71 0 109 -28t39 -79t-43 -73q-16 -8 -46 -8t-52 26t-22 68v8q-12 9 -55 9z" />
    <glyph glyph-name="circumflex" unicode="&#x2c6;" horiz-adv-x="819" 
d="M436 1589h4l287 -329l-51 -54l-256 232h-4l-279 -224l-45 54z" />
    <glyph glyph-name="caron" unicode="&#x2c7;" horiz-adv-x="817" 
d="M383 1188h-4l-287 330l47 51l250 -234h4l287 242l45 -53z" />
    <glyph glyph-name="breve" unicode="&#x2d8;" horiz-adv-x="737" 
d="M347 1356q165 0 251 149l47 -22q-47 -117 -126 -177q-79 -61 -165 -61q-80 0 -155 60t-107 174l51 18q28 -58 90 -99q61 -42 114 -42z" />
    <glyph glyph-name="dotaccent" unicode="&#x2d9;" horiz-adv-x="406" 
d="M125 1182q-30 33 -30 69q0 62 36 99t81 37t72 -33q27 -32 26 -80v-6q-3 -78 -71 -110q-20 -9 -52 -9t-62 33z" />
    <glyph glyph-name="ring" unicode="&#x2da;" horiz-adv-x="592" 
d="M441.5 1511q56.5 -48 55.5 -137t-66 -148t-144 -59q-130 0 -161.5 69.5t-31.5 115.5t19.5 84.5t66 80.5t126.5 42q79 0 135.5 -48zM198 1344q0 -44 27 -81t59 -37q52 1 80.5 40t28.5 99q0 59 -24 97t-57 38t-51.5 -11.5t-32.5 -30.5t-22 -44.5t-8 -69.5z" />
    <glyph glyph-name="ogonek" unicode="&#x2db;" horiz-adv-x="625" 
d="M223 -285q0 -143 135 -143q72 0 144 66l28 -35q-76 -86 -179 -118q-36 -11 -76 -11q-82 0 -132 54q-49 54 -49 137q0 152 131 269q131 118 307 175l-4 -54q-127 -49 -216 -142t-89 -198z" />
    <glyph glyph-name="tilde" unicode="&#x2dc;" horiz-adv-x="868" 
d="M776 1450q-70 -186 -222 -186q-56 0 -111.5 37t-84 54t-64.5 17t-78 -24t-73 -68l-51 27q29 72 95.5 121t120.5 49t88 -16.5t62.5 -37t56.5 -37t63 -16.5q80 0 149 105z" />
    <glyph glyph-name="hungarumlaut" unicode="&#x2dd;" horiz-adv-x="858" 
d="M712 1554q24 0 38 -20q43 -63 -58 -131l-276 -186l-37 47l225 231q55 59 108 59zM390 1556q24 0 36 -16t13 -36q0 -42 -60 -95l-242 -211l-45 45l195 250q50 63 103 63z" />
    <glyph glyph-name="Delta" unicode="&#x394;" horiz-adv-x="1430" 
d="M187 120v-2l940 -6v2l-417 1237h-2zM819 1467l518 -1467h-1317l635 1467h164z" />
    <glyph glyph-name="Delta" unicode="&#x2206;" horiz-adv-x="1430" 
d="M187 120v-2l940 -6v2l-417 1237h-2zM819 1467l518 -1467h-1317l635 1467h164z" />
    <glyph glyph-name="Omega" unicode="&#x3a9;" horiz-adv-x="1570" 
d="M1145 1227q-118 158 -328 158q-159 0 -274 -97t-174 -250q-60 -153 -60 -303q0 -263 109 -416t247 -169l-8 -150h-536l2 272h61v-11q0 -77 54 -104q54 -26 190 -28l144 -2v2q-199 66 -326 235q-128 170 -128 387q0 273 176 482q123 146 315 204q99 30 215 30t206 -28
q90 -27 162 -75q131 -88 199 -238q69 -149 69 -302q0 -235 -155 -428t-353 -267v-2l158 2q139 2 182 23q44 20 60 48t18 72h61l-26 -272h-543l8 150q72 18 144 78t128 149q121 192 121 442t-118 408z" />
    <glyph glyph-name="Omega" unicode="&#x2126;" horiz-adv-x="1570" 
d="M1145 1227q-118 158 -328 158q-159 0 -274 -97t-174 -250q-60 -153 -60 -303q0 -263 109 -416t247 -169l-8 -150h-536l2 272h61v-11q0 -77 54 -104q54 -26 190 -28l144 -2v2q-199 66 -326 235q-128 170 -128 387q0 273 176 482q123 146 315 204q99 30 215 30t206 -28
q90 -27 162 -75q131 -88 199 -238q69 -149 69 -302q0 -235 -155 -428t-353 -267v-2l158 2q139 2 182 23q44 20 60 48t18 72h61l-26 -272h-543l8 150q72 18 144 78t128 149q121 192 121 442t-118 408z" />
    <glyph glyph-name="pi" unicode="&#x3c0;" horiz-adv-x="1183" 
d="M373 1047q104 -1 285 -27t263 -26t182 53l32 -43q-71 -89 -177 -123l-32 -613q-11 -191 78 -191q33 0 70 25l24 -33q-50 -63 -140 -93q-30 -10 -71 -9q-42 1 -71 23t-45 63t-10 127l41 689q-82 5 -205 25t-172 23q-3 -42 -5 -92t-10 -221t-31 -280q-38 -186 -98 -271
q-60 -86 -161 -86q-44 0 -72 26t-28 56q0 51 27 77t69 26t72 -37q121 45 153 673q4 78 7 132q-120 0 -226 -51l-31 45q118 133 282 133z" />
    <glyph glyph-name="endash" unicode="&#x2013;" horiz-adv-x="1194" 
d="M136 723h932l-8 -127l-931 -8z" />
    <glyph glyph-name="emdash" unicode="&#x2014;" horiz-adv-x="1421" 
d="M136 723h1157l-6 -127l-1157 -8z" />
    <glyph glyph-name="quoteleft" unicode="&#x2018;" horiz-adv-x="433" 
d="M355 1164q26 -28 26 -62q0 -60 -33 -90t-89 -30t-90 45q-34 44 -34 99q0 101 45 217t123 206l51 -41q-70 -77 -103 -217q-11 -46 -11 -108h3q23 9 55 9q31 0 57 -28z" />
    <glyph glyph-name="quoteright" unicode="&#x2019;" horiz-adv-x="401" 
d="M150 1374q-26 28 -26 62q0 60 33 90t89 30t90 -44t34 -100q0 -102 -45 -217q-45 -116 -123 -206l-51 41q70 77 103 217q11 46 11 108h-3q-23 -9 -55 -9q-31 0 -57 28z" />
    <glyph glyph-name="quotesinglbase" unicode="&#x201a;" horiz-adv-x="485" 
d="M122 171q33 30 89 30q56 -1 90 -45t34 -99q0 -102 -45 -217q-45 -116 -123 -206l-51 41q70 77 103 217q11 46 11 108h-3q-70 -27 -113 20q-25 27 -25 74t33 77z" />
    <glyph glyph-name="quotedblleft" unicode="&#x201c;" horiz-adv-x="794" 
d="M355 1164q26 -28 26 -62q0 -60 -33 -90t-89 -30t-90 45q-34 44 -34 99q0 101 45 217t123 206l51 -41q-70 -77 -103 -217q-11 -46 -11 -108h3q23 9 55 9q31 0 57 -28zM716 1164q26 -28 26 -62q0 -60 -33 -90t-89 -30t-90 45q-34 44 -34 99q0 101 45 217t123 206l51 -41
q-70 -77 -103 -217q-11 -46 -11 -108h3q23 9 55 9q31 0 57 -28z" />
    <glyph glyph-name="quotedblright" unicode="&#x201d;" horiz-adv-x="761" 
d="M150 1374q-26 28 -26 62q0 60 33 90t89 30t90 -44t34 -100q0 -102 -45 -217q-45 -116 -123 -206l-51 41q70 77 103 217q11 46 11 108h-3q-23 -9 -55 -9q-31 0 -57 28zM510 1374q-26 28 -26 62q0 60 33 90t89 30t90 -44t34 -100q0 -102 -45 -217q-45 -116 -123 -206
l-51 41q70 77 103 217q11 46 11 108h-3q-23 -9 -55 -9q-31 0 -57 28z" />
    <glyph glyph-name="quotedblbase" unicode="&#x201e;" horiz-adv-x="846" 
d="M122 171q33 30 89 30q56 -1 90 -45t34 -99q0 -102 -45 -217q-45 -116 -123 -206l-51 41q70 77 103 217q11 46 11 108h-3q-70 -27 -113 20q-25 27 -25 74t33 77zM482 171q33 30 89 30q56 -1 90 -45t34 -99q0 -102 -45 -217q-45 -116 -123 -206l-51 41q70 77 103 217
q11 46 11 108h-3q-70 -27 -113 20q-25 27 -25 74t33 77z" />
    <glyph glyph-name="dagger" unicode="&#x2020;" horiz-adv-x="1044" 
d="M158 858q-87 0 -87 70t98 69q40 -1 160 -19t195 -34q-56 436 -38 524t91 88q79 0 79 -107t-95 -505q258 53 355 53q97 1 97 -69t-99 -70q-33 0 -156 19q-122 19 -197 34q39 -264 65 -338q-50 -271 -102 -843q-13 -144 -29 -285h-57l1 568q0 329 -18 560q35 79 100 338
q-276 -53 -363 -53z" />
    <glyph glyph-name="daggerdbl" unicode="&#x2021;" horiz-adv-x="1093" 
d="M896 162q92 0 93 -73q-7 -72 -99 -72t-354 56q47 -377 47 -445q0 -183 -100 -183q-63 0 -79 71q-4 20 -4 40q0 38 34 216q34 177 64 301q-273 -56 -362 -56t-89 66q0 79 106 79q66 0 346 -56q-9 58 -16 118q-27 232 -47 291q22 47 55 193q34 145 49 203
q-273 -56 -362 -56q-88 0 -88 67q0 78 95 78t358 -56q-7 46 -15 104t-20 163q-12 104 -13 167q0 178 101 178q62 0 78 -71q4 -20 5 -40q1 -19 -5 -57q-20 -136 -94 -444q273 56 335 56q61 0 89 -14t28 -58q-7 -73 -98 -73t-354 56q8 -59 16 -117q29 -224 49 -279
q-27 -59 -60 -205q-32 -146 -47 -204q266 56 358 56z" />
    <glyph glyph-name="bullet" unicode="&#x2022;" horiz-adv-x="797" 
d="M632 985.5q85 -83.5 85 -210.5q0 -126 -98.5 -219t-224.5 -93t-210.5 82t-84.5 201v72t97.5 159t224.5 92q126 0 211 -83.5z" />
    <glyph glyph-name="ellipsis" unicode="&#x2026;" horiz-adv-x="1582" 
d="M1225.5 3q-32.5 36 -32.5 75q0 67 38.5 107t87.5 40t78 -35t29 -87v-7q-2 -55 -39 -92t-83 -37t-78.5 36zM672.5 3q-32.5 36 -32.5 75q0 67 38.5 107t87.5 40t78 -35t29 -87v-7q-2 -55 -39 -92t-83 -37t-78.5 36zM119.5 3q-32.5 36 -32.5 75q0 67 38.5 107t87.5 40
t78 -35t29 -87v-7q-2 -55 -39 -92t-83 -37t-78.5 36z" />
    <glyph glyph-name="perthousand" unicode="&#x2030;" horiz-adv-x="2608" 
d="M1043 80q-93 113 -84 268q9 156 114 276q106 120 282 123q175 4 267 -109t84 -272q-7 -158 -124 -279q-117 -120 -282 -120q-164 0 -257 113zM1478 139q68 117 48 303q-14 132 -84 194q-36 34 -94 33q-102 -1 -160 -107q-45 -82 -50 -157q-4 -77 2 -135t25 -109
q47 -119 151 -119q105 0 162 97zM193 800q-93 113 -84 268q9 156 114 276q106 120 281 123q175 4 268 -110t85 -271q-9 -158 -125 -279q-117 -120 -282 -120q-164 0 -257 113zM1548 1381l-1230 -1414l-80 78l1219 1422zM468 764q103 0 165 105t43 295q-14 130 -84 194
q-36 34 -94 33q-102 -1 -161 -107q-47 -84 -50 -184q-13 -214 85 -302q38 -34 96 -34zM1862 80q-93 113 -84 268q9 156 114 276q106 120 282 123q175 4 267 -109t84 -272q-7 -158 -124 -279q-117 -120 -282 -120q-164 0 -257 113zM2296 139q68 117 48 303q-14 132 -82 194
q-36 34 -94 33q-102 -1 -162 -107q-45 -82 -49 -157q-5 -77 1 -135t26 -109q47 -119 151 -119t161 97z" />
    <glyph glyph-name="guilsinglleft" unicode="&#x2039;" horiz-adv-x="756" 
d="M52 541v8l602 575l49 -55l-449 -528v-4l373 -498l-59 -53z" />
    <glyph glyph-name="guilsinglright" unicode="&#x203a;" horiz-adv-x="755" 
d="M695 569v-8l-602 -575l-49 55l449 528v4l-373 498l59 53z" />
    <glyph glyph-name="fraction" unicode="&#x2044;" horiz-adv-x="929" 
d="M1021 1412l-1035 -1445l-63 47l1026 1453z" />
    <glyph glyph-name="uni2074" unicode="&#x2074;" horiz-adv-x="766" 
d="M183 921l253 -4l21 367h-2zM618 625h-299l2 59q86 3 96.5 52.5t12.5 78.5l1 25h-347l4 61l432 566h55l-27 -551l115 -2l-4 -74h-115l-7 -149l86 4z" />
    <glyph glyph-name="Euro" unicode="&#x20ac;" horiz-adv-x="1549" 
d="M436 687q0 -49 3 -79l572 -2l-61 -106l-495 -2q42 -195 171 -306.5t308 -111.5q283 0 462 229l54 -45q-232 -297 -576 -297q-249 0 -408 145.5t-198 384.5l-203 -1l35 114l157 -1q-1 10 -1 13v27q0 81 13 146h-187l34 114l177 -1q68 243 244.5 401t430.5 158
q202 0 371 -115h2l8 101h111l-62 -414h-73q-33 342 -348 342q-177 0 -319 -125.5t-194 -347.5l703 -3l-61 -106l-662 -3q-8 -60 -8 -109z" />
    <glyph glyph-name="trademark" unicode="&#x2122;" horiz-adv-x="2130" 
d="M471 1356l-127 -1q-62 -1 -92 -50t-35 -142h-61l20 271h729l-6 -271h-61q2 104 -20 138q-22 33 -50 45t-73 12l-90 -1l-31 -583q-2 -23 -2 -45t-4 -39l94 4l-4 -73h-320l4 57q77 0 94 76q5 23 7 51zM1401 612q-168 443 -242 685h-2l-9 -130l-36 -393q-8 -69 -14 -86
l100 6l-4 -69h-289l5 57q82 3 100 85q6 26 8 58l45 463q4 47 8 69l-88 -5l4 82h254l148 -439q17 -49 37 -107t41 -118h2q8 18 18 38t20 42q10 21 19 41q9 21 41 91q31 70 95 192t126 260h225l-4 -68q-81 -2 -90 -86q-3 -26 -2 -59l7 -430q2 -57 -2 -102l100 5l-4 -71h-324
l4 57q85 3 98 90q4 27 4 59l-5 305q-1 41 4 140h-2q-21 -59 -54 -129l-256 -533h-86z" />
    <glyph glyph-name="partialdiff" unicode="&#x2202;" horiz-adv-x="1031" 
d="M773 815q-59 133 -196 133t-240 -151q-104 -151 -104 -405q0 -157 54 -247t140 -90q206 0 299 381q34 139 43 285zM560 1030q134 0 213 -90q-5 156 -31 239q-50 154 -148 230q-98 75 -272 75h-24l4 69q34 3 68 3q296 0 438 -217q126 -191 125 -531q1 -569 -281 -755
q-115 -76 -260 -76t-239 108q-93 108 -93 302q0 285 155 469q70 84 160 128q90 46 185 46z" />
    <glyph glyph-name="summation" unicode="&#x2211;" horiz-adv-x="1326" 
d="M720 -446h83q290 -9 308 323h69l-32 -399h-1119l4 90q64 -3 148 133l452 727l-382 799q-41 85 -45 121l-95 -5l4 91h1082l-8 -359h-68q11 243 -153 277q-50 10 -107 10l-485 -10q24 -37 49 -88l354 -758l-481 -786q-73 -115 -112 -160q463 -6 534 -6z" />
    <glyph glyph-name="minus" unicode="&#x2212;" horiz-adv-x="1196" 
d="M143 655l911 -4l-6 -125l-911 -4z" />
    <glyph glyph-name="uni2215" unicode="&#x2215;" horiz-adv-x="0" 
 />
    <glyph glyph-name="radical" unicode="&#x221a;" horiz-adv-x="1712" 
d="M22 1024h398l219 -790l596 1531h616l-8 -79l-543 6l-663 -1698h-92l-232 786q-40 132 -43 170l-256 6z" />
    <glyph glyph-name="infinity" unicode="&#x221e;" horiz-adv-x="1715" 
d="M749 764q-114 221 -271 221q-111 0 -192 -80t-81 -204q0 -125 73 -201t206 -76q76 0 164 58t160 168q-1 0 -15 28t-44 86zM1242 424q123 0 201 94t78 217q0 124 -68 202q-68 79 -172 79q-197 0 -367 -250q78 -159 126 -219q48 -59 94 -91t108 -32zM852 571
q-155 -286 -405 -286q-78 -1 -143 35q-183 100 -183 369q0 191 100 318q49 61 117 97t142 35q131 0 220 -71t171 -218q107 206 285 276q58 23 134 23q153 0 235 -110q83 -110 83 -298q0 -187 -102 -326t-265 -139q-114 0 -204 65q-91 66 -185 230z" />
    <glyph glyph-name="integral" unicode="&#x222b;" horiz-adv-x="799" 
d="M113 -472q23 0 28 1q125 12 137 263l64 1295q23 469 378 469q81 0 124 -30t43 -84q0 -55 -47 -80q-18 -9 -50 -9q-32 1 -54 29t-23 73v8q-17 12 -54 12q-78 0 -110 -61t-39 -202l-64 -1297q-16 -337 -212 -435q-70 -36 -162 -35q-176 0 -176 116q0 55 47 80q17 9 49 9
t56 -28q22 -28 22 -74v-8q20 -12 43 -12z" />
    <glyph glyph-name="approxequal" unicode="&#x2248;" horiz-adv-x="1217" 
d="M825 746q128 0 244 91l-6 -112q-107 -100 -258 -101q-88 0 -138 26t-76 45q-26 18 -71 44t-100 26q-87 0 -139 -20t-132 -69l6 113q119 81 197 96q34 7 82 6q48 0 89 -10q41 -11 71 -27t54 -35t69 -46q43 -27 108 -27zM805 317q-88 0 -138 26t-76 45q-26 18 -71 44
t-100 26q-87 0 -139 -20t-132 -69l6 113q119 81 197 96q34 7 82 6q48 0 89 -10q41 -11 71 -27t54 -35t69 -46q44 -27 108 -27q128 0 244 91l-6 -112q-107 -101 -258 -101z" />
    <glyph glyph-name="notequal" unicode="&#x2260;" horiz-adv-x="1124" 
d="M117 879l572 -3l182 254l84 -65l-137 -189l211 -1l-6 -111l-287 -2l-201 -278l473 -2l-6 -111l-551 -3l-205 -284l-79 63l158 221l-234 -1l6 119l312 -2l198 278l-496 -2z" />
    <glyph glyph-name="lessequal" unicode="&#x2264;" horiz-adv-x="1133" 
d="M108 743l934 405l-8 -123l-794 -342v-2l759 -342l-8 -127l-889 397zM80 111l912 -9l-5 -102h-912z" />
    <glyph glyph-name="greaterequal" unicode="&#x2265;" horiz-adv-x="1135" 
d="M1028 620l-934 -405l8 123l794 342v2l-759 342l8 127l889 -397zM1001 0h-912l5 102l912 9z" />
    <glyph glyph-name="lozenge" unicode="&#x25ca;" horiz-adv-x="993" 
d="M494 -33h-53l-359 770l2 54l447 765h53l348 -751l-2 -53zM476 129h4l352 649l-281 631h-4l-368 -639z" />
    <glyph glyph-name="uniE0FF" unicode="&#xe0ff;" horiz-adv-x="0" 
 />
    <glyph glyph-name="uniEFFD" unicode="&#xeffd;" horiz-adv-x="1031" 
d="M229 75h518l45 874h-518zM113 1024h848l-53 -1024h-848z" />
    <glyph glyph-name="uniF000" unicode="&#xf000;" horiz-adv-x="0" 
 />
    <glyph glyph-name="Cedilla" unicode="&#xf407;" horiz-adv-x="625" 
d="M531 -239q0 -50 -21 -86q-21 -37 -56 -65q-114 -93 -350 -124l-12 68q111 18 168 52q58 34 80 61t22 58q0 63 -64 63t-103 -32l-66 35l70 225h118l-65 -170q62 37 118 37q90 0 126 -36q35 -36 35 -86z" />
    <glyph glyph-name="Circumflex" unicode="&#xf408;" horiz-adv-x="961" 
d="M494 1905h4l370 -289l-37 -57l-356 182h-4l-348 -178l-31 55z" />
    <glyph glyph-name="Ring" unicode="&#xf40c;" horiz-adv-x="643" 
d="M480.5 1858q68.5 -55 68.5 -159t-67 -167.5t-158 -63.5q-154 0 -192 80.5t-38 135.5t19.5 97t68.5 87t139.5 45t159 -55zM233.5 1808.5q-30.5 -44.5 -30.5 -95.5q0 -89 35.5 -136t86.5 -46t83 42t32 94q0 54 -9.5 87.5t-34 66t-78.5 32.5t-84.5 -44.5z" />
    <glyph glyph-name="Tilde" unicode="&#xf40d;" horiz-adv-x="977" 
d="M317 1737q-89 0 -167 -117l-58 35q64 140 140 169t122 29t86.5 -21t74 -46.5t65.5 -46.5t73 -21q102 0 178 121l54 -29q-83 -208 -250 -208q-53 0 -93 21t-75.5 46.5t-71 46.5t-78.5 21z" />
    <glyph glyph-name="Acute" unicode="&#xf6c9;" horiz-adv-x="592" 
d="M500 1836q0 -46 -66 -89l-299 -191l-43 58l260 241q46 41 83 41t51 -19.5t14 -40.5z" />
    <glyph glyph-name="Caron" unicode="&#xf6ca;" horiz-adv-x="961" 
d="M471 1528h-4l-375 293l39 61l342 -196h4l359 200l32 -53z" />
    <glyph glyph-name="Dieresis" unicode="&#xf6cb;" horiz-adv-x="721" 
d="M520 1593q-20 0 -38 9.5t-31 26t-20 38.5t-6 48t10.5 48.5t24.5 39t34.5 26t40.5 9.5t38.5 -9.5t29.5 -26t18 -39t5 -48.5t-10 -48t-23.5 -38.5t-33.5 -26t-39 -9.5zM189 1593q-20 0 -38 9.5t-31 26t-20 38.5t-6 48t10.5 48.5t24.5 39t34.5 26t40.5 9.5t38.5 -9.5
t29.5 -26t18 -39t5 -48.5t-10 -48t-23.5 -38.5t-33.5 -26t-39 -9.5z" />
    <glyph glyph-name="Grave" unicode="&#xf6ce;" horiz-adv-x="592" 
d="M92 1836q0 21 14 40.5t51 19.5t83 -41l260 -241l-43 -58l-299 191q-66 42 -66 89z" />
    <glyph glyph-name="fi" unicode="&#xfb01;" horiz-adv-x="1317" 
d="M934 815q0 129 -50 129q-45 0 -87 -48t-70 -150l-57 12q34 176 115 232.5t133 56.5q94 0 138 -57t44 -138q0 -80 -12 -159.5t-27 -168t-27 -180.5t-12 -178t63 -86t99 72t51 126l58 -12q-38 -183 -117.5 -236t-136.5 -53q-185 0 -185 193q0 120 40 342.5t40 302.5z
M-31 -475q40 0 68.5 24t48.5 68t33.5 105.5t22.5 136.5t16.5 162.5t14 181.5t21 326t34.5 409l-178 -2l10 88h178l6 35q55 345 207.5 419t248.5 76q164 3 269 -70t105 -165q-2 -41 -28.5 -67.5t-55.5 -26.5q-50 0 -73 27.5t-23 61.5t14 62q-12 49 -72.5 83t-112.5 34t-83 -4
t-125 -46.5t-117 -393.5l-2 -25h290l-6 -80h-290l-50 -719q-17 -234 -57 -400.5t-132 -273t-249 -106.5q-158 0 -158 106q0 52 30 68t60 16t51.5 -26t21.5 -68q22 -16 62 -16z" />
    <glyph glyph-name="fl" unicode="&#xfb02;" horiz-adv-x="1251" 
d="M-31 -475q40 0 68 24t48.5 68t34 105.5t22.5 136.5t16.5 162.5t13.5 181.5t12.5 191.5t16 245.5t26.5 298l-177 -2l10 88h178l6 35q56 347 202 422t228 75t164.5 -18t127.5 -18t87 26h59q-6 -38 -55 -324t-70.5 -636t-21.5 -384q0 -65 10.5 -94t46.5 -29q61 0 97 72
t51 127l59 -13q-19 -98 -65 -161.5t-92 -95t-122 -31.5q-150 0 -151 181q0 253 56 705t69 542q-53 50 -213 89t-230 -106.5t-83 -338.5l-2 -25h290l-6 -80h-290l-50 -719q-30 -495 -153 -637.5t-283 -142.5t-160 106q0 52 30 68t60 16t51.5 -26t21.5 -68q22 -16 62 -16z" />
    <glyph glyph-name="foundry" horiz-adv-x="2163" 
d="M858 528q-20 0 -27 -32h52q0 32 -25 32zM1065 418q14 0 22 6v31h-16q-27 -1 -27 -19t21 -18zM1917 506q0 -31 25 -31q20 0 20 31t-20 31q-25 0 -25 -31zM1534 422q29 0 29 51t-29 51t-29 -51t29 -51zM1419 408q0 -39 -43 -39t-43 39q0 16 10.5 28.5t32.5 12.5t32.5 -12.5
t10.5 -28.5zM1206 584h-24v63h96v-213h29v-57q-19 -8 -45 -8q-56 0 -56 57v158zM578 514v64h69l21 -33q4 9 19 23t29 14t27 -4v-64h-69v-80h35v-61h-127v61h20v80h-24zM1661 514v64h70l20 -33q5 12 20 25q15 12 29 12t27 -4v-64h-70v-80h35v-61h-127v61h18v80h-22zM950 506
q0 -26 -4 -47h-112q8 -25 51 -25h59v-53q-28 -14 -78 -14t-78 27.5t-28 76.5t24.5 80t70.5 31t70.5 -25t24.5 -51zM1065 582q94 0 94 -78v-70h23v-55q-18 -10 -46 -10t-40 14q-20 -16 -50 -16t-50.5 16t-20.5 47q0 62 80 62h32v2q0 20 -45 20h-51v53q48 15 74 15zM1532 367
q-100 0 -100 106q0 51 27.5 80t74.5 29t74.5 -28t27.5 -79t-27.5 -79.5t-76.5 -28.5zM244 647q31 0 80 -14v-82h-64v31q-6 2 -26 2t-36 -20.5t-16 -53.5q0 -76 76 -76h66v-51q-36 -16 -92 -16t-92 35.5t-36 99.5t35 104.5t105 40.5zM408 283q-34 0 -48 14v53h35q33 0 43 23
h-28l-50 141h-20v64h78l28 -101l11 -49l22 86h-18v64h88v-64l-47 -156q-13 -45 -36.5 -60t-57.5 -15zM2034 582q16 0 28 -4v-64h-32q2 -4 2 -22t-22.5 -39t-55.5 -21t-39 2v-31h37q80 0 80 -73q0 -21 -13 -47h-55v59h-94q-21 17 -21 49q0 33 29 58q-29 16 -29 53t23.5 58.5
t62.5 21.5t66 -21q17 21 33 21z" />
    </font>
</defs>
</svg>
